<svg width="24" height="24" viewBox="0 0 24 24" fill="none" xmlns="http://www.w3.org/2000/svg">
<path d="M7.42857 12.4172C7.42857 12.2677 7.48878 12.1243 7.59594 12.0186C7.7031 11.9129 7.84845 11.8535 8 11.8535H11.4286C11.5801 11.8535 11.7255 11.9129 11.8326 12.0186C11.9398 12.1243 12 12.2677 12 12.4172C12 12.5667 11.9398 12.71 11.8326 12.8158C11.7255 12.9215 11.5801 12.9809 11.4286 12.9809H8C7.84845 12.9809 7.7031 12.9215 7.59594 12.8158C7.48878 12.71 7.42857 12.5667 7.42857 12.4172ZM11.4286 14.9083H8C7.84845 14.9083 7.7031 14.9676 7.59594 15.0734C7.48878 15.1791 7.42857 15.3224 7.42857 15.4719C7.42857 15.6215 7.48878 15.7648 7.59594 15.8705C7.7031 15.9763 7.84845 16.0356 8 16.0356H11.4286C11.5801 16.0356 11.7255 15.9763 11.8326 15.8705C11.9398 15.7648 12 15.6215 12 15.4719C12 15.3224 11.9398 15.1791 11.8326 15.0734C11.7255 14.9676 11.5801 14.9083 11.4286 14.9083ZM20 19.4363C20 19.5858 19.9398 19.7292 19.8326 19.8349C19.7255 19.9406 19.5801 20 19.4286 20H4.57143C4.41988 20 4.27453 19.9406 4.16737 19.8349C4.0602 19.7292 4 19.5858 4 19.4363C4 19.2868 4.0602 19.1434 4.16737 19.0377C4.27453 18.932 4.41988 18.8726 4.57143 18.8726H5.14286V8.51074C5.14215 8.30126 5.20093 8.09576 5.31252 7.91753C5.42412 7.7393 5.58408 7.59545 5.77429 7.50229L12.6314 4.12011C12.9891 3.94424 13.404 3.96228 13.7434 4.16915C14.0829 4.37603 14.2851 4.73454 14.2851 5.12856V9.28977H17.7137C18.344 9.28977 18.8566 9.79541 18.8566 10.4172V18.8726H19.428C19.5796 18.8726 19.7249 18.932 19.8321 19.0377C19.9392 19.1434 20 19.2868 20 19.4363ZM14.2857 10.4172V18.8726H17.7143V10.4172H14.2857ZM6.28571 18.8726H13.1429V5.12856L6.28571 8.51074V18.8726Z" fill="#B88E5F"/>
</svg>
