<svg width="20" height="20" viewBox="0 0 20 20" fill="none" xmlns="http://www.w3.org/2000/svg">
<path d="M16.8844 16.4965V10.5578H10.9303C10.622 10.5578 10.3725 10.3083 10.3725 10C10.3725 9.69173 10.622 9.4422 10.9303 9.4422H16.8844V3.50352C16.8842 3.28956 16.7104 3.11578 16.4965 3.1156H9.62753V5.34863C9.62753 5.65689 9.37799 5.90643 9.06973 5.90643C8.76146 5.90643 8.51192 5.65689 8.51192 5.34863V3.1156H3.50352C3.28957 3.11578 3.11578 3.28957 3.1156 3.50352V9.4422H8.51192V7.20918C8.51192 6.90091 8.76146 6.65137 9.06973 6.65137C9.37799 6.65137 9.62753 6.90091 9.62753 7.20918V12.7908C9.62753 13.0991 9.37799 13.3486 9.06973 13.3486C8.76146 13.3486 8.51192 13.0991 8.51192 12.7908V10.5578H3.1156V16.4965C3.11578 16.7104 3.28957 16.8842 3.50352 16.8844H8.51192V14.6514C8.51192 14.3431 8.76146 14.0936 9.06973 14.0936C9.37799 14.0936 9.62753 14.3431 9.62753 14.6514V16.8844H12.481L12.5937 16.8953C12.8478 16.9475 13.0388 17.1726 13.0388 17.4422C13.0388 17.7118 12.8478 17.9369 12.5937 17.9891L12.481 18H3.50352C2.67304 17.9998 2.00017 17.327 2 16.4965V3.50352C2.00017 2.67304 2.67304 2.00017 3.50352 2H16.4965C17.327 2.00017 17.9998 2.67306 18 3.50352V16.4965C17.9998 17.3269 17.327 17.9998 16.4965 18H14.9612C14.653 17.9998 14.4034 17.7504 14.4034 17.4422C14.4034 17.134 14.653 16.8846 14.9612 16.8844H16.4965C16.7104 16.8842 16.8842 16.7104 16.8844 16.4965Z" fill="#B88E5F"/>
</svg>
