<svg width="20" height="20" viewBox="0 0 20 20" fill="none" xmlns="http://www.w3.org/2000/svg">
<path d="M17.3299 9.22744V5.49311C17.3299 4.66981 16.611 4 15.7272 4H4.27277C3.38904 4 2.67006 4.66981 2.67006 5.49311V9.22744C1.70833 9.47547 1 10.2976 1 11.2713V14.1088C1 14.3837 1.23927 14.6066 1.53438 14.6066H2.67006V15.5022C2.67006 15.7771 2.90934 16 3.20444 16C3.49954 16 3.73881 15.7771 3.73881 15.5022V14.6066H16.2612V15.5022C16.2612 15.7771 16.5005 16 16.7956 16C17.0907 16 17.3299 15.7771 17.3299 15.5022V14.6066H18.4656C18.7607 14.6066 19 14.3837 19 14.1088V11.2713C19 10.2976 18.2916 9.47547 17.3299 9.22744ZM3.73881 5.49311C3.73881 5.21884 3.97837 4.99567 4.27277 4.99567H15.7273C16.0217 4.99567 16.2612 5.21884 16.2612 5.49311V9.15041H15.0091V8.15111C15.0091 7.28216 14.2503 6.57524 13.3176 6.57524H11.1572C10.7099 6.57524 10.3028 6.73811 10 7.00324C9.69723 6.73815 9.2902 6.57524 8.84287 6.57524H6.68248C5.74975 6.57524 4.99094 7.28219 4.99094 8.15111V9.15041H3.73881V5.49311ZM13.9404 8.15111V9.15041H10.5344V8.15111C10.5344 7.83115 10.8138 7.5709 11.1572 7.5709H13.3176C13.661 7.5709 13.9404 7.83118 13.9404 8.15111ZM9.46559 8.15111V9.15041H6.05958V8.15111C6.05958 7.83115 6.339 7.5709 6.68237 7.5709H8.84276C9.1862 7.5709 9.46559 7.83118 9.46559 8.15111ZM17.9312 13.6109H2.06875V11.2713C2.06875 10.6509 2.61058 10.1461 3.27661 10.1461H16.7234C17.3894 10.1461 17.9312 10.6509 17.9312 11.2713V13.6109Z" fill="#B88E5F"/>
</svg>
