<svg width="146" height="56" viewBox="0 0 146 56" fill="none" xmlns="http://www.w3.org/2000/svg">
<path d="M19.6298 3.90524V12.6225L26.2661 14.366V37.031H31.7848V0.697266L19.6298 3.90524ZM12.9934 3.90524L12.0154 3.62628V37.031H12.9934V3.90524ZM9.71015 3.06837V37.1008H10.8279V3.41707L9.71015 3.06837ZM5.23934 1.88282V37.031H6.35704V2.16177L5.23934 1.88282ZM3.00393 1.32491V37.1008H4.12163V1.60387L3.00393 1.32491ZM0.838379 0.697266V37.031H1.81637V0.97622L0.838379 0.697266ZM7.47474 2.44073V37.031H8.59245V2.71968L7.47474 2.44073Z" fill="#B88E5F"/>
<path d="M121.62 21.6886H125.881V23.3623H125.951C126.301 22.7346 127.279 21.2004 130.213 21.2004C131.61 21.2004 133.426 21.6886 134.613 23.9202C135.591 22.3859 137.128 21.2004 139.503 21.2004C140.551 21.2004 142.298 21.4096 143.555 22.7346C144.952 24.2689 145.232 25.2452 145.232 28.6624V37.031H140.621V28.9414C140.621 27.6861 140.621 25.5242 138.246 25.5242C135.731 25.5242 135.731 27.8255 135.731 28.7321V37.1008H131.121V28.8019C131.121 28.0348 131.121 25.5939 128.815 25.5939C126.231 25.5939 126.231 28.1045 126.231 29.0111V37.1008H121.62V21.6886ZM0.908235 56.0696H2.37522V53.3498C2.7245 53.559 3.2135 53.6288 3.70249 53.6288C5.51876 53.6288 6.77618 52.3038 6.77618 50.4906C6.77618 48.8168 5.72833 47.5615 4.12163 47.5615C3.35321 47.5615 2.7245 47.8405 2.30536 48.2589V47.701H0.838379V56.0696H0.908235ZM3.70249 48.9563C4.68048 48.9563 5.23934 49.6537 5.23934 50.5603C5.23934 51.5366 4.68048 52.234 3.63264 52.234C3.14364 52.234 2.79436 52.1643 2.44508 51.8853V49.584C2.79436 49.1655 3.2135 48.9563 3.70249 48.9563ZM9.1513 53.4893L11.8757 49.8629V53.4893H13.3427V47.701H11.8757L9.1513 51.3274V47.701H7.68431V53.4893H9.1513ZM19.1408 51.8853C18.7915 52.1643 18.2326 52.4432 17.5341 52.4432C16.6259 52.4432 15.9274 51.9551 15.7877 51.1182H19.979C20.0489 50.909 20.0489 50.6998 20.0489 50.3511C20.0489 48.7471 18.7915 47.701 17.3245 47.701C15.4384 47.701 14.2508 49.026 14.2508 50.6998C14.2508 52.513 15.5082 53.6985 17.3944 53.6985C18.2326 53.6985 19.0011 53.4893 19.6298 53.0011L19.1408 51.8853ZM17.2546 48.8168C18.0929 48.8168 18.5819 49.3747 18.5819 50.0721H15.7178C15.8575 49.305 16.3465 48.8168 17.2546 48.8168ZM24.4499 53.4893H25.9168V47.701H21.5159L21.446 49.5142C21.3063 51.7458 20.6078 52.234 20.1188 52.1643L20.2585 53.6288C21.7953 53.6288 22.5637 53.0011 22.8432 49.8629L22.913 49.2353H24.4499V53.4893ZM26.6154 49.1655H28.5015V53.4893H29.9685V49.1655H31.8546V47.701H26.6154V49.1655ZM31.9944 50.63C31.9944 52.3735 33.2518 53.6288 35.1379 53.6288C37.024 53.6288 38.2814 52.3038 38.2814 50.63C38.2814 48.8866 37.024 47.6313 35.1379 47.6313C33.1819 47.5615 31.9944 48.8866 31.9944 50.63ZM33.5312 50.63C33.5312 49.6537 34.2298 48.9563 35.068 48.9563C35.9762 48.9563 36.6747 49.6537 36.6747 50.63C36.6747 51.6064 35.9762 52.3038 35.068 52.3038C34.2298 52.234 33.5312 51.5366 33.5312 50.63ZM39.1896 56.0696H40.6566V53.3498C41.0058 53.559 41.4948 53.6288 41.9838 53.6288C43.8001 53.6288 45.0575 52.3038 45.0575 50.4906C45.0575 48.8168 44.0097 47.5615 42.403 47.5615C41.6346 47.5615 41.0058 47.8405 40.5867 48.2589V47.701H39.1197V56.0696H39.1896ZM41.9838 48.9563C42.9618 48.9563 43.5207 49.6537 43.5207 50.5603C43.5207 51.5366 42.9618 52.234 41.914 52.234C41.425 52.234 41.0757 52.1643 40.7264 51.8853V49.584C41.0058 49.1655 41.4948 48.9563 41.9838 48.9563ZM52.602 53.4893H54.069V47.701H52.602V49.8629H50.0872V47.701H48.6202V53.4893H50.0872V51.2577H52.602V53.4893ZM54.9771 50.63C54.9771 52.3735 56.2346 53.6288 58.1207 53.6288C60.0068 53.6288 61.2642 52.3038 61.2642 50.63C61.2642 48.8866 60.0068 47.6313 58.1207 47.6313C56.2346 47.5615 54.9771 48.8866 54.9771 50.63ZM56.5838 50.63C56.5838 49.6537 57.2824 48.9563 58.1207 48.9563C59.0288 48.9563 59.7274 49.6537 59.7274 50.63C59.7274 51.6064 59.0288 52.3038 58.1207 52.3038C57.2824 52.234 56.5838 51.5366 56.5838 50.63ZM62.1724 53.4893C62.7312 53.4893 63.7791 53.559 64.4776 53.559C66.3637 53.559 67.202 52.9314 67.202 51.8156C67.202 51.1182 66.7829 50.6998 65.9446 50.4906C66.5035 50.4208 66.9924 49.9326 66.9924 49.2353C66.9924 48.1892 66.0843 47.701 64.3379 47.701C63.4298 47.701 62.5915 47.7708 62.0326 47.7708V53.4893H62.1724ZM64.6173 51.0485C65.3159 51.0485 65.735 51.2577 65.735 51.7458C65.735 52.1643 65.3159 52.4432 64.6872 52.4432C64.3379 52.4432 63.9188 52.3735 63.7092 52.3735V51.1182H64.6173V51.0485ZM64.6173 48.8168C65.1762 48.8168 65.5255 49.026 65.5255 49.4445C65.5255 49.8629 65.1063 50.1419 64.6173 50.1419H63.6393V48.8866C63.8489 48.8866 64.268 48.8168 64.6173 48.8168ZM67.9006 50.63C67.9006 52.3735 69.158 53.6288 71.0441 53.6288C72.9302 53.6288 74.1877 52.3038 74.1877 50.63C74.1877 48.8866 72.9302 47.6313 71.0441 47.6313C69.158 47.5615 67.9006 48.8866 67.9006 50.63ZM69.5073 50.63C69.5073 49.6537 70.2058 48.9563 71.0441 48.9563C71.9523 48.9563 72.6508 49.6537 72.6508 50.63C72.6508 51.6064 71.9523 52.3038 71.0441 52.3038C70.136 52.234 69.5073 51.5366 69.5073 50.63ZM75.0958 53.4893H76.5628V49.0958H78.9379V47.701H75.0259V53.4893H75.0958ZM78.9379 50.63C78.9379 52.3735 80.1953 53.6288 82.0814 53.6288C83.9676 53.6288 85.225 52.3038 85.225 50.63C85.225 48.8866 83.9676 47.6313 82.0814 47.6313C80.1953 47.5615 78.9379 48.8866 78.9379 50.63ZM80.5446 50.63C80.5446 49.6537 81.2432 48.9563 82.0814 48.9563C82.9896 48.9563 83.6881 49.6537 83.6881 50.63C83.6881 51.6064 82.9896 52.3038 82.0814 52.3038C81.2432 52.234 80.5446 51.5366 80.5446 50.63ZM92.7695 53.4893H94.2365V47.701H88.7877V53.4893H90.2546V49.0958H92.6996L92.7695 53.4893ZM95.1446 50.63C95.1446 52.3735 96.402 53.6288 98.2881 53.6288C100.174 53.6288 101.432 52.3038 101.432 50.63C101.432 48.8866 100.174 47.6313 98.2881 47.6313C96.402 47.5615 95.1446 48.8866 95.1446 50.63ZM96.7513 50.63C96.7513 49.6537 97.4499 48.9563 98.2881 48.9563C99.1963 48.9563 99.8948 49.6537 99.8948 50.63C99.8948 51.6064 99.1963 52.3038 98.2881 52.3038C97.38 52.234 96.7513 51.5366 96.7513 50.63ZM107.789 47.701H105.902L103.807 50.5603L106.112 53.4893H108.068L105.553 50.4906L107.789 47.701ZM102.34 53.4893H103.807V47.701H102.34V53.4893ZM107.858 50.63C107.858 52.3735 109.116 53.6288 111.002 53.6288C112.888 53.6288 114.146 52.3038 114.146 50.63C114.146 48.8866 112.888 47.6313 111.002 47.6313C109.116 47.5615 107.858 48.8866 107.858 50.63ZM109.465 50.63C109.465 49.6537 110.164 48.9563 111.002 48.9563C111.91 48.9563 112.609 49.6537 112.609 50.63C112.609 51.6064 111.91 52.3038 111.002 52.3038C110.094 52.234 109.465 51.5366 109.465 50.63ZM118.686 53.4893H120.153V47.701H115.752L115.682 49.5142C115.543 51.7458 114.844 52.234 114.355 52.1643L114.495 53.6288C116.032 53.6288 116.8 53.0011 117.08 49.8629L117.149 49.2353H118.686V53.4893ZM125.951 51.8853C125.602 52.1643 125.043 52.4432 124.345 52.4432C123.436 52.4432 122.738 51.9551 122.598 51.1182H126.79C126.859 50.909 126.859 50.6998 126.859 50.3511C126.859 48.7471 125.602 47.701 124.135 47.701C122.249 47.701 121.061 49.026 121.061 50.6998C121.061 52.513 122.319 53.6985 124.205 53.6985C125.043 53.6985 125.812 53.4893 126.44 53.0011L125.951 51.8853ZM123.995 48.8168C124.834 48.8168 125.323 49.3747 125.323 50.0721H122.458C122.668 49.305 123.157 48.8168 123.995 48.8168ZM131.61 53.4893H133.077V47.701H131.61V49.8629H129.095V47.701H127.628V53.4893H129.095V51.2577H131.61V53.4893ZM135.871 53.4893L138.595 49.8629V53.4893H140.062V47.701H138.595L135.871 51.3274V47.701H134.404V53.4893H135.871ZM144.114 47.701C142.018 47.701 141.25 48.6076 141.25 49.7234C141.25 50.6998 141.879 51.1879 142.368 51.3972L140.831 53.4196H142.507L143.695 51.6761H144.533V53.4196H146V47.6313H144.114V47.701ZM142.787 49.8629C142.787 49.4445 143.136 48.9563 143.835 48.9563H144.463V50.63H143.695C143.276 50.63 142.787 50.3511 142.787 49.8629ZM19.9092 12.6226V37.031H12.9934V14.366L19.9092 12.6226ZM37.7226 16.5977H44.4288L48.4805 30.0572H48.5503L52.5322 16.5977H59.3082V37.031H54.4881L54.6279 21.7583L54.558 21.6886L50.157 37.031H46.7341L42.3331 21.6886L42.2633 21.7583L42.403 37.031H37.7226V16.5977ZM72.9302 27.6861C72.7207 26.7795 71.8824 25.1057 69.4374 25.1057C67.0623 25.1057 66.1542 26.7795 65.9446 27.6861H72.9302ZM76.9819 32.2191C76.2135 33.9625 75.1657 35.2876 73.8384 36.1244C72.5111 37.031 71.114 37.5192 69.4374 37.5192C65.0365 37.5192 61.3341 33.9625 61.3341 29.4295C61.3341 25.1755 64.6872 21.2004 69.3676 21.2004C74.048 21.2004 77.4709 24.8965 77.4709 29.4993C77.4709 30.1269 77.4709 30.3361 77.3312 30.6848H65.8049C66.0843 32.5678 67.6212 33.6138 69.3676 33.6138C70.7647 33.6138 71.5331 32.9862 72.1618 32.1493L76.9819 32.2191ZM84.9456 21.6886H87.181V25.5242H84.9456V36.9613H80.335V25.5242H78.0996V21.6886H80.335V16.5977H84.9456V21.6886ZM88.5082 21.6886H92.8393V23.2925H92.9092C93.2585 22.5254 94.0968 21.1307 96.7513 21.1307V25.7334C94.6556 25.8031 93.1188 26.2216 93.1188 28.5229V36.9613H88.5082V21.6886ZM103.178 37.031H98.5676V21.6886H103.178V37.031ZM98.6374 15.0634H103.248V19.2477H98.6374V15.0634ZM119.315 37.031H114.984V35.427H114.914C114.006 37.3797 112.12 37.5192 110.932 37.5192C110.024 37.5192 107.789 37.31 106.391 35.5665C105.134 34.0323 104.994 32.9862 104.994 30.8243V21.6886H109.605V30.1967C109.605 31.2427 109.605 33.2651 112.05 33.2651C113.377 33.2651 114.704 32.5678 114.704 30.1269V21.6886H119.315V37.031Z" fill="#00403F"/>
</svg>
