<svg width="146" height="56" viewBox="0 0 146 56" fill="none" xmlns="http://www.w3.org/2000/svg">
<g clip-path="url(#clip0_2501_576)">
<path d="M19.6298 3.90535V12.6227L26.2661 14.3661V37.0311H31.7848V0.697384L19.6298 3.90535ZM12.9934 3.90535L12.0154 3.6264V37.0311H12.9934V3.90535ZM9.71015 3.06849V37.1009H10.8279V3.41718L9.71015 3.06849ZM5.23934 1.88294V37.0311H6.35704V2.16189L5.23934 1.88294ZM3.00393 1.32503V37.1009H4.12163V1.60398L3.00393 1.32503ZM0.838379 0.697384V37.0311H1.81637V0.976338L0.838379 0.697384ZM7.47474 2.44085V37.0311H8.59245V2.7198L7.47474 2.44085Z" fill="white"/>
<path d="M121.62 21.6887H125.881V23.3624H125.951C126.301 22.7347 127.279 21.2005 130.213 21.2005C131.61 21.2005 133.426 21.6887 134.613 23.9203C135.591 22.3861 137.128 21.2005 139.503 21.2005C140.551 21.2005 142.298 21.4097 143.555 22.7347C144.952 24.269 145.232 25.2453 145.232 28.6625V37.0311H140.621V28.9415C140.621 27.6862 140.621 25.5243 138.246 25.5243C135.731 25.5243 135.731 27.8257 135.731 28.7323V37.1009H131.121V28.802C131.121 28.0349 131.121 25.594 128.815 25.594C126.231 25.594 126.231 28.1046 126.231 29.0112V37.1009H121.62V21.6887ZM0.908235 56.0697H2.37522V53.3499C2.7245 53.5592 3.2135 53.6289 3.70249 53.6289C5.51876 53.6289 6.77618 52.3039 6.77618 50.4907C6.77618 48.8169 5.72833 47.5616 4.12163 47.5616C3.35321 47.5616 2.7245 47.8406 2.30536 48.259V47.7011H0.838379V56.0697H0.908235ZM3.70249 48.9564C4.68048 48.9564 5.23934 49.6538 5.23934 50.5604C5.23934 51.5367 4.68048 52.2341 3.63264 52.2341C3.14364 52.2341 2.79436 52.1644 2.44508 51.8854V49.5841C2.79436 49.1656 3.2135 48.9564 3.70249 48.9564ZM9.1513 53.4894L11.8757 49.863V53.4894H13.3427V47.7011H11.8757L9.1513 51.3275V47.7011H7.68431V53.4894H9.1513ZM19.1408 51.8854C18.7915 52.1644 18.2326 52.4433 17.5341 52.4433C16.6259 52.4433 15.9274 51.9552 15.7877 51.1183H19.979C20.0489 50.9091 20.0489 50.6999 20.0489 50.3512C20.0489 48.7472 18.7915 47.7011 17.3245 47.7011C15.4384 47.7011 14.2508 49.0261 14.2508 50.6999C14.2508 52.5131 15.5082 53.6986 17.3944 53.6986C18.2326 53.6986 19.0011 53.4894 19.6298 53.0012L19.1408 51.8854ZM17.2546 48.8169C18.0929 48.8169 18.5819 49.3748 18.5819 50.0722H15.7178C15.8575 49.3051 16.3465 48.8169 17.2546 48.8169ZM24.4499 53.4894H25.9168V47.7011H21.5159L21.446 49.5143C21.3063 51.746 20.6078 52.2341 20.1188 52.1644L20.2585 53.6289C21.7953 53.6289 22.5637 53.0012 22.8432 49.863L22.913 49.2354H24.4499V53.4894ZM26.6154 49.1656H28.5015V53.4894H29.9685V49.1656H31.8546V47.7011H26.6154V49.1656ZM31.9944 50.6301C31.9944 52.3736 33.2518 53.6289 35.1379 53.6289C37.024 53.6289 38.2814 52.3039 38.2814 50.6301C38.2814 48.8867 37.024 47.6314 35.1379 47.6314C33.1819 47.5616 31.9944 48.8867 31.9944 50.6301ZM33.5312 50.6301C33.5312 49.6538 34.2298 48.9564 35.068 48.9564C35.9762 48.9564 36.6747 49.6538 36.6747 50.6301C36.6747 51.6065 35.9762 52.3039 35.068 52.3039C34.2298 52.2341 33.5312 51.5367 33.5312 50.6301ZM39.1896 56.0697H40.6566V53.3499C41.0058 53.5592 41.4948 53.6289 41.9838 53.6289C43.8001 53.6289 45.0575 52.3039 45.0575 50.4907C45.0575 48.8169 44.0097 47.5616 42.403 47.5616C41.6346 47.5616 41.0058 47.8406 40.5867 48.259V47.7011H39.1197V56.0697H39.1896ZM41.9838 48.9564C42.9618 48.9564 43.5207 49.6538 43.5207 50.5604C43.5207 51.5367 42.9618 52.2341 41.914 52.2341C41.425 52.2341 41.0757 52.1644 40.7264 51.8854V49.5841C41.0058 49.1656 41.4948 48.9564 41.9838 48.9564ZM52.602 53.4894H54.069V47.7011H52.602V49.863H50.0872V47.7011H48.6202V53.4894H50.0872V51.2578H52.602V53.4894ZM54.9771 50.6301C54.9771 52.3736 56.2346 53.6289 58.1207 53.6289C60.0068 53.6289 61.2642 52.3039 61.2642 50.6301C61.2642 48.8867 60.0068 47.6314 58.1207 47.6314C56.2346 47.5616 54.9771 48.8867 54.9771 50.6301ZM56.5838 50.6301C56.5838 49.6538 57.2824 48.9564 58.1207 48.9564C59.0288 48.9564 59.7274 49.6538 59.7274 50.6301C59.7274 51.6065 59.0288 52.3039 58.1207 52.3039C57.2824 52.2341 56.5838 51.5367 56.5838 50.6301ZM62.1724 53.4894C62.7312 53.4894 63.7791 53.5592 64.4776 53.5592C66.3637 53.5592 67.202 52.9315 67.202 51.8157C67.202 51.1183 66.7829 50.6999 65.9446 50.4907C66.5035 50.4209 66.9924 49.9328 66.9924 49.2354C66.9924 48.1893 66.0843 47.7011 64.3379 47.7011C63.4298 47.7011 62.5915 47.7709 62.0326 47.7709V53.4894H62.1724ZM64.6173 51.0486C65.3159 51.0486 65.735 51.2578 65.735 51.7459C65.735 52.1644 65.3159 52.4433 64.6872 52.4433C64.3379 52.4433 63.9188 52.3736 63.7092 52.3736V51.1183H64.6173V51.0486ZM64.6173 48.8169C65.1762 48.8169 65.5255 49.0262 65.5255 49.4446C65.5255 49.863 65.1063 50.142 64.6173 50.142H63.6393V48.8867C63.8489 48.8867 64.268 48.8169 64.6173 48.8169ZM67.9006 50.6301C67.9006 52.3736 69.158 53.6289 71.0441 53.6289C72.9302 53.6289 74.1877 52.3039 74.1877 50.6301C74.1877 48.8867 72.9302 47.6314 71.0441 47.6314C69.158 47.5616 67.9006 48.8867 67.9006 50.6301ZM69.5073 50.6301C69.5073 49.6538 70.2058 48.9564 71.0441 48.9564C71.9523 48.9564 72.6508 49.6538 72.6508 50.6301C72.6508 51.6065 71.9523 52.3039 71.0441 52.3039C70.136 52.2341 69.5073 51.5367 69.5073 50.6301ZM75.0958 53.4894H76.5628V49.0959H78.9379V47.7011H75.0259V53.4894H75.0958ZM78.9379 50.6301C78.9379 52.3736 80.1953 53.6289 82.0814 53.6289C83.9676 53.6289 85.225 52.3039 85.225 50.6301C85.225 48.8867 83.9676 47.6314 82.0814 47.6314C80.1953 47.5616 78.9379 48.8867 78.9379 50.6301ZM80.5446 50.6301C80.5446 49.6538 81.2432 48.9564 82.0814 48.9564C82.9896 48.9564 83.6881 49.6538 83.6881 50.6301C83.6881 51.6065 82.9896 52.3039 82.0814 52.3039C81.2432 52.2341 80.5446 51.5367 80.5446 50.6301ZM92.7695 53.4894H94.2365V47.7011H88.7877V53.4894H90.2546V49.0959H92.6996L92.7695 53.4894ZM95.1446 50.6301C95.1446 52.3736 96.402 53.6289 98.2881 53.6289C100.174 53.6289 101.432 52.3039 101.432 50.6301C101.432 48.8867 100.174 47.6314 98.2881 47.6314C96.402 47.5616 95.1446 48.8867 95.1446 50.6301ZM96.7513 50.6301C96.7513 49.6538 97.4499 48.9564 98.2881 48.9564C99.1963 48.9564 99.8948 49.6538 99.8948 50.6301C99.8948 51.6065 99.1963 52.3039 98.2881 52.3039C97.38 52.2341 96.7513 51.5367 96.7513 50.6301ZM107.789 47.7011H105.902L103.807 50.5604L106.112 53.4894H108.068L105.553 50.4907L107.789 47.7011ZM102.34 53.4894H103.807V47.7011H102.34V53.4894ZM107.858 50.6301C107.858 52.3736 109.116 53.6289 111.002 53.6289C112.888 53.6289 114.146 52.3039 114.146 50.6301C114.146 48.8867 112.888 47.6314 111.002 47.6314C109.116 47.5616 107.858 48.8867 107.858 50.6301ZM109.465 50.6301C109.465 49.6538 110.164 48.9564 111.002 48.9564C111.91 48.9564 112.609 49.6538 112.609 50.6301C112.609 51.6065 111.91 52.3039 111.002 52.3039C110.094 52.2341 109.465 51.5367 109.465 50.6301ZM118.686 53.4894H120.153V47.7011H115.752L115.682 49.5143C115.543 51.746 114.844 52.2341 114.355 52.1644L114.495 53.6289C116.032 53.6289 116.8 53.0012 117.08 49.863L117.149 49.2354H118.686V53.4894ZM125.951 51.8854C125.602 52.1644 125.043 52.4433 124.345 52.4433C123.436 52.4433 122.738 51.9552 122.598 51.1183H126.79C126.859 50.9091 126.859 50.6999 126.859 50.3512C126.859 48.7472 125.602 47.7011 124.135 47.7011C122.249 47.7011 121.061 49.0261 121.061 50.6999C121.061 52.5131 122.319 53.6986 124.205 53.6986C125.043 53.6986 125.812 53.4894 126.44 53.0012L125.951 51.8854ZM123.995 48.8169C124.834 48.8169 125.323 49.3748 125.323 50.0722H122.458C122.668 49.3051 123.157 48.8169 123.995 48.8169ZM131.61 53.4894H133.077V47.7011H131.61V49.863H129.095V47.7011H127.628V53.4894H129.095V51.2578H131.61V53.4894ZM135.871 53.4894L138.595 49.863V53.4894H140.062V47.7011H138.595L135.871 51.3275V47.7011H134.404V53.4894H135.871ZM144.114 47.7011C142.018 47.7011 141.25 48.6077 141.25 49.7235C141.25 50.6999 141.879 51.188 142.368 51.3973L140.831 53.4197H142.507L143.695 51.6762H144.533V53.4197H146V47.6314H144.114V47.7011ZM142.787 49.863C142.787 49.4446 143.136 48.9564 143.835 48.9564H144.463V50.6301H143.695C143.276 50.6301 142.787 50.3512 142.787 49.863ZM19.9092 12.6227V37.0311H12.9934V14.3661L19.9092 12.6227ZM37.7226 16.5978H44.4288L48.4805 30.0573H48.5503L52.5322 16.5978H59.3082V37.0311H54.4881L54.6279 21.7584L54.558 21.6887L50.157 37.0311H46.7341L42.3331 21.6887L42.2633 21.7584L42.403 37.0311H37.7226V16.5978ZM72.9302 27.6862C72.7207 26.7796 71.8824 25.1059 69.4374 25.1059C67.0623 25.1059 66.1542 26.7796 65.9446 27.6862H72.9302ZM76.9819 32.2192C76.2135 33.9626 75.1656 35.2877 73.8384 36.1245C72.5111 37.0311 71.114 37.5193 69.4374 37.5193C65.0365 37.5193 61.3341 33.9626 61.3341 29.4296C61.3341 25.1756 64.6872 21.2005 69.3676 21.2005C74.048 21.2005 77.4709 24.8966 77.4709 29.4994C77.4709 30.127 77.4709 30.3362 77.3312 30.6849H65.8049C66.0843 32.5679 67.6212 33.6139 69.3676 33.6139C70.7647 33.6139 71.5331 32.9863 72.1618 32.1494L76.9819 32.2192ZM84.9456 21.6887H87.181V25.5243H84.9456V36.9614H80.335V25.5243H78.0996V21.6887H80.335V16.5978H84.9456V21.6887ZM88.5082 21.6887H92.8393V23.2927H92.9092C93.2585 22.5255 94.0968 21.1308 96.7513 21.1308V25.7335C94.6556 25.8032 93.1188 26.2217 93.1188 28.523V36.9614H88.5082V21.6887ZM103.178 37.0311H98.5676V21.6887H103.178V37.0311ZM98.6374 15.0635H103.248V19.2478H98.6374V15.0635ZM119.315 37.0311H114.984V35.4271H114.914C114.006 37.3798 112.12 37.5193 110.932 37.5193C110.024 37.5193 107.789 37.3101 106.391 35.5666C105.134 34.0324 104.994 32.9863 104.994 30.8244V21.6887H109.605V30.1968C109.605 31.2428 109.605 33.2653 112.05 33.2653C113.377 33.2653 114.704 32.5679 114.704 30.127V21.6887H119.315V37.0311Z" fill="white"/>
</g>
<defs>
<clipPath id="clip0_2501_576">
<rect width="146" height="56" fill="white"/>
</clipPath>
</defs>
</svg>
