<svg width="328" height="380" viewBox="0 0 328 380" fill="none" xmlns="http://www.w3.org/2000/svg">
<path d="M130.232 35.6514L120.082 32.7779V376.887H130.232V35.6514ZM96.1564 27.0307V377.605H107.757V30.6227L96.1564 27.0307ZM49.7559 14.8181V376.887H61.356V17.6917L49.7559 14.8181ZM26.5556 9.07098V377.605H38.1557V11.9445L26.5556 9.07098ZM4.08032 2.60547V376.887H14.2304V5.47903L4.08032 2.60547ZM72.9561 20.5652V376.887H84.5563V23.4388L72.9561 20.5652Z" fill="#00403F"/>
<path d="M199.108 125.45V35.6514L325.259 2.60547V376.887H267.983V143.41L199.108 125.45Z" fill="#B88E5F"/>
<path d="M202.008 125.45V376.887H130.232V143.41L202.008 125.45Z" fill="#00403F"/>
</svg>
