<svg width="20" height="20" viewBox="0 0 20 20" fill="none" xmlns="http://www.w3.org/2000/svg">
<path d="M14.9493 2H5.05067C4.24201 2.00141 3.46688 2.32327 2.89508 2.89508C2.32327 3.46688 2.00141 4.24201 2 5.05067V14.9493C2.00141 15.758 2.32327 16.5331 2.89508 17.1049C3.46688 17.6767 4.24201 17.9986 5.05067 18H14.9493C15.758 17.9986 16.5331 17.6767 17.1049 17.1049C17.6767 16.5331 17.9986 15.758 18 14.9493V5.05067C17.9986 4.24201 17.6767 3.46688 17.1049 2.89508C16.5331 2.32327 15.758 2.00141 14.9493 2ZM16.9333 14.9493C16.9319 15.4751 16.7224 15.9789 16.3507 16.3507C15.9789 16.7224 15.4751 16.9319 14.9493 16.9333H5.05067C4.52491 16.9319 4.02109 16.7224 3.64932 16.3507C3.27755 15.9789 3.06807 15.4751 3.06667 14.9493V5.05067C3.06807 4.52491 3.27755 4.02109 3.64932 3.64932C4.02109 3.27755 4.52491 3.06807 5.05067 3.06667H14.9493C15.4751 3.06807 15.9789 3.27755 16.3507 3.64932C16.7224 4.02109 16.9319 4.52491 16.9333 5.05067V14.9493Z" fill="#B88E5F"/>
<path d="M13.8 9.98133C13.6586 9.98133 13.5229 10.0375 13.4229 10.1375C13.3229 10.2376 13.2667 10.3732 13.2667 10.5147V12.5147L7.48533 6.73333H9.48533C9.62678 6.73333 9.76244 6.67714 9.86246 6.57712C9.96248 6.4771 10.0187 6.34145 10.0187 6.2C10.0187 6.05855 9.96248 5.9229 9.86246 5.82288C9.76244 5.72286 9.62678 5.66667 9.48533 5.66667H6.03467C5.93707 5.66667 5.84346 5.70544 5.77445 5.77445C5.70544 5.84346 5.66667 5.93707 5.66667 6.03467V9.48533C5.66667 9.62678 5.72286 9.76244 5.82288 9.86246C5.9229 9.96248 6.05855 10.0187 6.2 10.0187C6.34145 10.0187 6.4771 9.96248 6.57712 9.86246C6.67714 9.76244 6.73333 9.62678 6.73333 9.48533V7.48533L12.5147 13.2667H10.5147C10.3732 13.2667 10.2376 13.3229 10.1375 13.4229C10.0375 13.5229 9.98133 13.6586 9.98133 13.8C9.98133 13.9414 10.0375 14.0771 10.1375 14.1771C10.2376 14.2771 10.3732 14.3333 10.5147 14.3333H13.9653C14.0629 14.3333 14.1565 14.2946 14.2255 14.2255C14.2946 14.1565 14.3333 14.0629 14.3333 13.9653V10.5147C14.3333 10.3732 14.2771 10.2376 14.1771 10.1375C14.0771 10.0375 13.9414 9.98133 13.8 9.98133Z" fill="#B88E5F"/>
</svg>
