<svg width="20" height="20" viewBox="0 0 20 20" fill="none" xmlns="http://www.w3.org/2000/svg">
<path d="M8.46619 5.38263C8.46617 5.73482 8.18087 6.01998 7.82871 6.02012C7.47642 6.02012 7.19021 5.73491 7.19018 5.38263V4.17722L3.08908 8.27936C2.84 8.52843 2.43596 8.52835 2.18684 8.27936C1.93772 8.03024 1.93772 7.62623 2.18684 7.37711L6.28898 3.27497H5.08356C4.73126 3.27497 4.44504 2.98979 4.44504 2.63749C4.44504 2.28519 4.73126 2 5.08356 2H7.82871L7.9533 2.01246C8.07594 2.03696 8.18956 2.09714 8.27931 2.18689C8.39886 2.3065 8.46619 2.46837 8.46619 2.63749V5.38263Z" fill="#B88E5F"/>
<path d="M14.2789 5.97002C14.2789 6.44881 13.891 6.8367 13.4122 6.8367H10.5578V9.69112C10.5578 10.1699 10.17 10.5578 9.69112 10.5578H6.8367V13.4122C6.8367 13.891 6.44888 14.2789 5.97002 14.2789H3.1156V16.8844H16.8844V3.1156H14.2789V5.97002ZM18 17.1333C18 17.6121 17.6121 18 17.1333 18H2.86668C2.38782 18 2 17.6121 2 17.1333V14.03C2 13.5512 2.38783 13.1633 2.86668 13.1633H5.7211V10.3089C5.7211 9.83013 6.10893 9.4422 6.58778 9.4422H9.4422V6.58778C9.4422 6.10899 9.83009 5.7211 10.3089 5.7211H13.1633V2.86668C13.1633 2.38789 13.5512 2 14.03 2H17.1333C17.6121 2 18 2.38789 18 2.86668V17.1333Z" fill="#B88E5F"/>
</svg>
