<?xml version="1.0" encoding="utf-8"?><svg width="22" height="20" xmlns="http://www.w3.org/2000/svg" viewBox="0 0 22 20"><path d="M20 6.5A4.5 4.5 0 0015.5 2c-.78 0-1.387.11-1.948.354-.568.248-1.152.66-1.845 1.353a1 1 0 01-1.414 0C9.6 3.014 9.016 2.602 8.448 2.354 7.887 2.11 7.28 2 6.5 2A4.5 4.5 0 002 6.5c0 1.616.92 2.958 2.15 4.236l6.85 6.85 6.3-6.3.545-.55C19.075 9.445 20 8.105 20 6.5zm2 0c0 2.74-1.808 4.749-3.294 6.206l.001.001-7 7a1 1 0 01-1.414 0l-6.988-6.988-.575-.572C1.377 10.748 0 8.909 0 6.5A6.5 6.5 0 016.5 0c.98 0 1.873.14 2.747.52.613.268 1.185.641 1.753 1.122.568-.48 1.14-.854 1.753-1.121C13.627.14 14.52 0 15.5 0A6.5 6.5 0 0122 6.5z"/></svg>