<?xml version="1.0" encoding="utf-8"?><svg width="40" height="40" xmlns="http://www.w3.org/2000/svg" viewBox="0 0 40 40"><path d="M29.326 12.5h-3.148c-.236-.988-.86-1.875-1.766-2.512-.906-.638-2.04-.987-3.21-.988H19.17c-1.17.001-2.304.35-3.21.988-.907.637-1.53 1.524-1.766 2.512h-3.148c-.27 0-.528.092-.718.256a.819.819 0 00-.298.619c0 .232.107.455.298.619.19.164.448.256.718.256h1.015v11.375c.002 1.16.537 2.272 1.49 3.092.951.82 2.242 1.282 3.588 1.283h6.093c1.346-.001 2.636-.463 3.588-1.283.952-.82 1.488-1.932 1.49-3.092V14.25h1.015c.27 0 .527-.092.718-.256a.819.819 0 00.297-.619.819.819 0 00-.297-.619 1.104 1.104 0 00-.718-.256zM19.17 10.75h2.03a3.4 3.4 0 011.76.482 2.72 2.72 0 011.114 1.268h-7.777c.21-.511.6-.954 1.114-1.268a3.4 3.4 0 011.759-.482zm7.108 14.875c0 .696-.32 1.364-.892 1.856-.571.492-1.346.769-2.154.769H17.14c-.808 0-1.583-.277-2.154-.769-.572-.492-.893-1.16-.893-1.856V14.25H26.28v11.375z"/><path d="M20.187 24.75c.27 0 .528-.093.718-.257a.818.818 0 00.298-.618v-5.25a.818.818 0 00-.298-.62 1.104 1.104 0 00-.718-.255c-.269 0-.527.092-.718.256a.819.819 0 00-.297.619v5.25c0 .232.107.454.297.618.19.164.449.257.718.257z"/></svg>