<?xml version="1.0" encoding="utf-8"?><svg viewBox="0 0 60 68" xmlns="http://www.w3.org/2000/svg" xmlns:xlink="http://www.w3.org/1999/xlink"><style>:root>svg{display:none}:root>svg:target{display:block}</style><svg viewBox="0 0 8 14" id="ic_arr-left" xmlns="http://www.w3.org/2000/svg"><path d="M7.707 13.707a1 1 0 01-1.338.069l-.076-.069-6-6a1 1 0 010-1.414l6-6a1 1 0 111.414 1.414L2.414 7l5.293 5.293.068.076a1 1 0 01-.068 1.338z"/></svg><svg viewBox="0 0 8 14" id="ic_arr-right" xmlns="http://www.w3.org/2000/svg"><path d="M.293.293A1 1 0 011.63.224l.076.069 6 6a1 1 0 010 1.414l-6 6a1 1 0 11-1.414-1.414L5.586 7 .293 1.707.225 1.63A1 1 0 01.293.293z"/></svg><svg viewBox="0 0 10 6" id="ic_arrow-down" xmlns="http://www.w3.org/2000/svg"><path d="M9.707.293a1 1 0 01.069 1.338l-.069.076-4 4a1 1 0 01-1.414 0l-4-4A1 1 0 111.707.293L5 3.586 8.293.293 8.37.225a1 1 0 011.338.068z"/></svg><svg viewBox="0 0 24 24" id="ic_arrow-left" xmlns="http://www.w3.org/2000/svg"><path fill-rule="evenodd" clip-rule="evenodd" d="M9.854 5.146a.5.5 0 010 .708L3.707 12H22.5a.5.5 0 010 1H3.707l6.147 6.146a.5.5 0 01-.708.708l-7-7a.5.5 0 010-.708l7-7a.5.5 0 01.708 0z"/></svg><svg viewBox="0 0 24 24" id="ic_arrow-right" xmlns="http://www.w3.org/2000/svg"><path fill-rule="evenodd" clip-rule="evenodd" d="M15.146 5.146a.5.5 0 01.708 0l7 7a.5.5 0 010 .708l-7 7a.5.5 0 01-.708-.708L21.293 13H2.5a.5.5 0 010-1h18.793l-6.147-6.146a.5.5 0 010-.708z"/></svg><svg viewBox="0 0 20 20" id="ic_cross" xmlns="http://www.w3.org/2000/svg"><path fill-rule="evenodd" clip-rule="evenodd" d="M14.1 15L5 5.9l.901-.9 9.1 9.1-.9.9z"/><path fill-rule="evenodd" clip-rule="evenodd" d="M5.9 15L15 5.9l-.9-.9L5 14.1l.9.9z"/></svg><svg viewBox="0 0 24 24" id="ic_dl" xmlns="http://www.w3.org/2000/svg"><path fill-rule="evenodd" clip-rule="evenodd" d="M3 14a1 1 0 011 1v4a1 1 0 001 1h14a1 1 0 001-1v-4a1 1 0 112 0v4a3 3 0 01-3 3H5a3 3 0 01-3-3v-4a1 1 0 011-1z"/><path fill-rule="evenodd" clip-rule="evenodd" d="M6.293 9.293a1 1 0 011.414 0L12 13.586l4.293-4.293a1 1 0 111.414 1.414l-5 5a1 1 0 01-1.414 0l-5-5a1 1 0 010-1.414z"/><path fill-rule="evenodd" clip-rule="evenodd" d="M12 2a1 1 0 011 1v12a1 1 0 11-2 0V3a1 1 0 011-1z"/></svg><svg fill="none" viewBox="0 0 40 40" id="ic_find" xmlns="http://www.w3.org/2000/svg"><path d="M0 20C0 8.954 8.954 0 20 0s20 8.954 20 20-8.954 20-20 20S0 31.046 0 20z"/><path fill-rule="evenodd" clip-rule="evenodd" d="M18.758 13.5a5.258 5.258 0 100 10.516 5.258 5.258 0 000-10.516zM12 18.758a6.758 6.758 0 1111.954 4.323l4.247 4.247a.75.75 0 11-1.06 1.06l-4.269-4.268A6.758 6.758 0 0112 18.758z" fill="#131313"/></svg><svg viewBox="0 0 22 20" id="ic_heart" xmlns="http://www.w3.org/2000/svg"><path d="M20 6.5A4.5 4.5 0 0015.5 2c-.78 0-1.387.11-1.948.354-.568.248-1.152.66-1.845 1.353a1 1 0 01-1.414 0C9.6 3.014 9.016 2.602 8.448 2.354 7.887 2.11 7.28 2 6.5 2A4.5 4.5 0 002 6.5c0 1.616.92 2.958 2.15 4.236l6.85 6.85 6.3-6.3.545-.55C19.075 9.445 20 8.105 20 6.5zm2 0c0 2.74-1.808 4.749-3.294 6.206l.001.001-7 7a1 1 0 01-1.414 0l-6.988-6.988-.575-.572C1.377 10.748 0 8.909 0 6.5A6.5 6.5 0 016.5 0c.98 0 1.873.14 2.747.52.613.268 1.185.641 1.753 1.122.568-.48 1.14-.854 1.753-1.121C13.627.14 14.52 0 15.5 0A6.5 6.5 0 0122 6.5z"/></svg><svg viewBox="0 0 24 24" id="ic_house" xmlns="http://www.w3.org/2000/svg"><path d="M10 13v7h4v-7h-4zm12 6a3.002 3.002 0 01-3 3H5a3 3 0 01-3-3v-9a3 3 0 011.063-2.291l6.996-5.996.005-.003.21-.163A3 3 0 0112 1.001l.265.011a3 3 0 011.462.535l.21.163.004.003 6.995 5.996.123.108A3.002 3.002 0 0122 10v9zm-6 1h3a1 1 0 001-1v-9l-.006-.109a.998.998 0 00-.349-.655l-.004-.005-6.995-5.995a1 1 0 00-.558-.232L12 3.001a1 1 0 00-.646.236v-.001L4.359 9.23l-.005.005A1 1 0 004 10v9a1.002 1.002 0 001 1h3v-7a2 2 0 012-2h4a2 2 0 012 2v7z"/></svg><svg viewBox="0 0 24 24" id="ic_loc" xmlns="http://www.w3.org/2000/svg"><path d="M16.994 7.752A5 5 0 007 8l.01.28c.092 1.405.87 2.937 1.921 4.368 1.07 1.458 2.323 2.674 3.069 3.347.745-.673 1.998-1.889 3.069-3.347C16.189 11.122 17 9.481 17 8l-.006-.248zM3 21h18l-2-6h-3.245a26.61 26.61 0 01-2.158 2.246l-.322.294-.06.05a2 2 0 01-2.295.094l-.134-.094-.06-.05A26.819 26.819 0 018.244 15h-3.24L3 21zM13 8a1 1 0 10-2 0 1 1 0 002 0zm2 0a3 3 0 11-6 0 3 3 0 016 0zm3.986.4c-.106 1.643-.846 3.236-1.732 4.6H19a2 2 0 011.897 1.368l2 6 .062.229a2.003 2.003 0 01-1.722 2.388L21 23H3a2.002 2.002 0 01-1.977-1.7 2 2 0 01.081-.934l2.004-6 .056-.146A2 2 0 015.004 13h1.74c-.884-1.364-1.625-2.957-1.73-4.6L5 8a7 7 0 1114 0l-.013.4z"/></svg><svg fill="none" viewBox="0 0 24 24" id="ic_phone" xmlns="http://www.w3.org/2000/svg"><path d="M7.58 1.964v.001a2.812 2.812 0 012.752 2.162l.047.25.002.01.043.296c.111.689.29 1.366.534 2.02h.001a2.804 2.804 0 01-.632 2.962l-.004.004-.593.59a13.463 13.463 0 004.015 4.007l.594-.593.004-.004.149-.136a2.812 2.812 0 012.812-.496h.001a10.64 10.64 0 002.027.535l.297.043.01.001.252.048a2.81 2.81 0 012.164 2.777v2.705l-.003.146a2.805 2.805 0 01-2.913 2.67l-.146-.01h-.018a18.934 18.934 0 01-8.246-2.928v-.001a18.63 18.63 0 01-5.726-5.714l-.296-.471a18.852 18.852 0 01-2.57-7.248l-.068-.55-.001-.016a2.805 2.805 0 012.796-3.06H7.58zm-2.8 2.005a.812.812 0 00-.682.545.803.803 0 00-.04.313l.06.493A16.853 16.853 0 006.416 11.8l.265.42.004.008-.843.537.843-.536a16.63 16.63 0 004.74 4.861l.383.25.008.005.419.264a16.935 16.935 0 006.95 2.353.811.811 0 00.87-.807v-2.713l.001-.026a.804.804 0 00-.69-.817 12.645 12.645 0 01-2.76-.687h-.001a.814.814 0 00-.857.182l-1.145 1.143a1 1 0 01-1.2.162 15.466 15.466 0 01-5.805-5.794A1 1 0 017.76 9.4l1.146-1.144a.805.805 0 00.181-.849v-.002a12.584 12.584 0 01-.69-2.757.805.805 0 00-.808-.685H4.866l-.085.005zm15.57-1.713a1 1 0 011.412 1.416l-3.72 3.712h3.013a1 1 0 110 2h-5.43a1 1 0 01-1-1v-5.42a1 1 0 012 0v3.009l3.724-3.717z" fill="#fff"/></svg><svg fill="none" viewBox="0 0 60 68" id="ic_pin" xmlns="http://www.w3.org/2000/svg"><g clip-path="url(#mclip0_507_5633)"><g filter="url(#mfilter0_f_507_5633)"><path d="M30.51 56.523a.5.5 0 01-.5.477c-.29 0-.51-.21-.52-.477-.145-3.168-1.756-5.217-4.832-6.147C14.53 47.968 7 38.863 7 28 7 15.297 17.297 5 30 5s23 10.297 23 23c0 10.863-7.53 19.968-17.658 22.376-3.076.93-4.687 2.98-4.83 6.147h-.002z" fill="red"/></g><path d="M30.51 56.523a.5.5 0 01-.5.477c-.29 0-.51-.21-.52-.477-.145-3.168-1.756-5.217-4.832-6.147C14.53 47.968 7 38.863 7 28 7 15.297 17.297 5 30 5s23 10.297 23 23c0 10.863-7.53 19.968-17.658 22.376-3.076.93-4.687 2.98-4.83 6.147h-.002z" fill="red"/><path d="M30 68c-2.21 0-4-1.79-4-4s1.79-4 4-4 4 1.79 4 4-1.79 4-4 4z" fill="#fff"/><path d="M30 66a2 2 0 10.09-3.998A2 2 0 0030 66z" fill="#000"/><path fill-rule="evenodd" clip-rule="evenodd" d="M30 34.2V39h11.4a.6.6 0 00.6-.6V24.6a.6.6 0 00-.6-.6h-4.954l-.158 2H40v1h-3.79l-.159 2H40v1h-4.028l-.373 4.715a.303.303 0 01-.323.284.306.306 0 01-.276-.309V18.4a.4.4 0 00-.4-.4H34v-.6a.4.4 0 00-.4-.4H23.4a.4.4 0 00-.4.4v.6h-.6a.4.4 0 00-.4.4v20a.6.6 0 00.6.6H27v-4.8c0-.11.09-.2.2-.2h2.6c.11 0 .2.09.2.2zM25.5 31v-6h2v6h-2zm4-6v6h2v-6h-2zm-4-2v-3h2v3h-2zm4-3v3h2v-3h-2zM37 33v-1h3v1h-3z" fill="#fff"/><path d="M36.525 23l.08-1h2.994c.22 0 .4.18.4.4v.6h-3.474z" fill="#fff"/></g><defs><clipPath id="mclip0_507_5633"><path fill="#fff" d="M0 0h60v68H0z"/></clipPath><filter id="mfilter0_f_507_5633" x="1" y="-1" width="58" height="64" filterUnits="userSpaceOnUse" color-interpolation-filters="sRGB"><feFlood flood-opacity="0" result="BackgroundImageFix"/><feBlend in="SourceGraphic" in2="BackgroundImageFix" result="shape"/><feGaussianBlur stdDeviation="3" result="effect1_foregroundBlur_507_5633"/></filter></defs></svg><svg fill="none" viewBox="0 0 43 43" id="ic_play" xmlns="http://www.w3.org/2000/svg"><circle opacity=".83" cx="21.355" cy="21.474" r="20.816" fill="#0090C3"/><path d="M26.752 21.78l-8.556 4.94v-9.879l8.556 4.94z" fill="#fff"/></svg><svg viewBox="0 0 16 14" id="ic_tg" xmlns="http://www.w3.org/2000/svg"><path d="M6.279 9.096l-.265 3.723c.379 0 .543-.163.74-.358l1.775-1.697 3.679 2.695c.674.376 1.15.178 1.332-.621l2.415-11.316c.214-.997-.36-1.388-1.018-1.143L.743 5.813c-.969.376-.954.916-.165 1.161l3.629 1.129 8.43-5.274c.396-.263.757-.118.46.145L6.279 9.096z"/></svg><svg viewBox="0 0 20 20" id="ic_vb" xmlns="http://www.w3.org/2000/svg"><path d="M17.745 1.948c-.524-.457-2.64-1.914-7.36-1.934 0 0-5.565-.316-8.276 2.043C.602 3.487.07 5.584.013 8.18c-.058 2.597-.128 7.464 4.819 8.784h.004l-.004 2.015s-.033.817.535.98c.684.204 1.088-.417 1.743-1.085.358-.367.852-.906 1.227-1.316 3.386.27 5.985-.348 6.281-.438.684-.21 4.552-.68 5.178-5.546.65-5.023-.313-8.194-2.051-9.627zm.572 9.26c-.531 4.062-3.666 4.32-4.242 4.496-.247.074-2.534.613-5.404.437 0 0-2.142 2.449-2.81 3.086-.218.207-.457.187-.452-.223 0-.27.016-3.347.016-3.347-.004 0-.004 0 0 0-4.193-1.102-3.946-5.246-3.9-7.413.045-2.168.477-3.945 1.754-5.14 2.294-1.973 7.019-1.68 7.019-1.68 3.99.016 5.902 1.156 6.347 1.539 1.47 1.195 2.22 4.054 1.672 8.245zm-5.725-3.156c.016.336-.515.36-.532.024-.045-.86-.469-1.278-1.342-1.324-.354-.02-.322-.524.029-.504 1.149.058 1.787.683 1.845 1.804zm.836.442c.041-1.656-1.05-2.953-3.122-3.098-.35-.023-.313-.527.037-.504 2.389.164 3.662 1.723 3.616 3.613-.004.336-.54.32-.531-.011zm1.936.523c.004.336-.532.34-.532.004-.024-3.183-2.26-4.918-4.975-4.937-.35-.004-.35-.504 0-.504 3.036.02 5.478 2.008 5.507 5.437zm-.466 3.832v.007c-.444.742-1.276 1.563-2.133 1.3l-.008-.01c-.87-.231-2.917-1.231-4.21-2.208-.667-.5-1.277-1.09-1.746-1.656a12.643 12.643 0 01-1.269-1.82c-.877-1.503-1.07-2.175-1.07-2.175-.277-.813.584-1.602 1.37-2.023h.009c.379-.188.741-.125.984.152 0 0 .511.578.73.863.205.266.481.691.626.93.25.425.094.859-.153 1.039l-.494.375c-.251.19-.218.546-.218.546s.733 2.629 3.472 3.293c0 0 .375.031.576-.207l.396-.469c.19-.234.646-.383 1.095-.144.606.324 1.376.828 1.887 1.285.288.222.354.562.156.921z"/></svg><svg viewBox="0 0 19 11" id="ic_vk" xmlns="http://www.w3.org/2000/svg"><path d="M17.57 8.059c-.393-.414-.84-.785-1.27-1.143-.154-.128-.313-.26-.466-.39-.438-.377-.454-.519-.107-.947.24-.295.495-.59.742-.876.224-.26.455-.527.677-.796l.045-.055c.424-.515.862-1.047 1.095-1.689.06-.17.124-.418-.021-.627-.145-.208-.427-.272-.627-.301a1.946 1.946 0 00-.287-.017l-2.774-.002h-.023c-.42 0-.702.174-.864.53a13.74 13.74 0 01-.519 1.05c-.385.688-.875 1.48-1.584 2.141l-.03.028c-.084.08-.179.169-.248.169a.133.133 0 01-.035-.006c-.147-.05-.246-.362-.241-.507v-.006L11.03 1.8l-.003-.03c-.07-.457-.226-.742-.817-.843a.278.278 0 00-.048-.004H7.278c-.47 0-.729.168-.972.419-.066.067-.202.206-.135.376.07.172.292.208.365.22.361.06.564.254.622.593.1.588.113 1.216.039 1.975a1.49 1.49 0 01-.129.514c-.015.032-.07.138-.127.138-.018 0-.07-.006-.165-.063-.224-.135-.387-.327-.578-.564A12.863 12.863 0 014.53 1.817a.986.986 0 00-.92-.592c-.46-.006-.878-.01-1.276-.01-.435 0-.839.004-1.232.012-.337.005-.57.093-.693.263s-.115.394.024.664C1.544 4.32 2.55 5.896 3.697 7.261c.804.956 1.61 1.618 2.536 2.082.977.49 2.071.729 3.345.729.145 0 .294-.003.445-.01.74-.031 1.015-.266 1.05-.9.016-.323.057-.662.238-.951.114-.183.22-.183.256-.183.067 0 .151.028.241.079.161.092.3.216.413.324l.317.31c.228.224.464.456.71.675.538.481 1.132.693 1.813.647h2.56a.755.755 0 00.602-.34c.16-.248.157-.564-.008-.847a4.587 4.587 0 00-.645-.817z"/></svg><svg viewBox="0 0 16 17" id="ic_wa" xmlns="http://www.w3.org/2000/svg"><path d="M9.719 9.385c.27-.34.451-.51.541-.51.09 0 .428.153 1.01.458.591.306.904.49.938.552.014.035.021.087.021.157 0 .229-.059.493-.177.791-.111.271-.358.5-.74.688-.381.18-.736.27-1.062.27-.396 0-1.056-.215-1.98-.645a5.945 5.945 0 01-1.77-1.23C6 9.41 5.486 8.768 4.958 7.99c-.5-.743-.746-1.417-.74-2.021v-.084c.022-.632.279-1.18.772-1.645a.788.788 0 01.541-.23c.042 0 .104.007.188.021.083.007.15.01.198.01.132 0 .222.025.27.074.056.041.112.135.167.28.056.14.17.445.344.918.174.472.26.732.26.78 0 .147-.121.348-.364.605-.236.25-.354.41-.354.48 0 .048.017.1.052.155.236.507.59.983 1.062 1.427.39.368.913.72 1.573 1.053.083.048.16.072.23.072.103 0 .29-.166.562-.5zm-1.573 5.01a6.33 6.33 0 002.531-.52 6.581 6.581 0 002.094-1.396 6.613 6.613 0 001.396-2.083c.347-.813.52-1.66.52-2.542a6.33 6.33 0 00-.52-2.531 6.582 6.582 0 00-1.396-2.094 6.581 6.581 0 00-2.094-1.396 6.329 6.329 0 00-2.531-.52c-.882 0-1.73.173-2.542.52-.805.348-1.5.813-2.083 1.396a6.582 6.582 0 00-1.396 2.094 6.329 6.329 0 00-.52 2.531c0 1.41.416 2.688 1.25 3.833l-.824 2.428 2.521-.803a6.406 6.406 0 003.594 1.084zM5.094.626A7.669 7.669 0 018.146 0c1.062 0 2.076.208 3.041.625a7.918 7.918 0 012.51 1.677 7.918 7.918 0 011.678 2.51c.417.966.625 1.98.625 3.042 0 1.063-.208 2.08-.625 3.052a7.947 7.947 0 01-1.677 2.5 7.916 7.916 0 01-2.51 1.677 7.594 7.594 0 01-3.042.625 7.735 7.735 0 01-3.802-.979L0 16.125l1.417-4.219A7.666 7.666 0 01.292 7.854c0-1.062.208-2.076.625-3.042a7.917 7.917 0 011.677-2.51 7.948 7.948 0 012.5-1.677z"/></svg><svg viewBox="0 0 29 22" id="ic_yt" xmlns="http://www.w3.org/2000/svg"><path d="M27.277 4.052c-.259-1.443-1.492-2.494-2.923-2.823C22.212.771 18.248.442 13.96.442c-4.286 0-8.314.329-10.458.787C2.073 1.558.838 2.542.58 4.052c-.262 1.64-.52 3.937-.52 6.89 0 2.954.258 5.25.583 6.891.262 1.443 1.495 2.494 2.924 2.822 2.273.46 6.171.787 10.46.787 4.288 0 8.186-.328 10.46-.787 1.428-.328 2.662-1.312 2.923-2.822.259-1.64.584-4.004.65-6.89-.132-2.954-.457-5.25-.782-6.891zM10.453 15.536V6.35l7.925 4.593-7.925 4.594z"/></svg></svg>