<svg width="56" height="56" viewBox="0 0 56 56" fill="none" xmlns="http://www.w3.org/2000/svg">
<g clip-path="url(#clip0_2517_1627)">
<path d="M11.5937 24.5546H5.03125V21.2734H11.5937V24.5546ZM11.5937 30.6796H5.03125V27.3984H11.5937V30.6796ZM11.5937 36.8046H5.03125V33.5234H11.5937V36.8046Z" stroke="#B88E5F" stroke-width="1.4" stroke-miterlimit="10" stroke-linecap="round" stroke-linejoin="round"/>
<path d="M39.5937 7.98438H23.8438V11.2656H39.5937V7.98438Z" stroke="#B88E5F" stroke-width="1.4" stroke-miterlimit="10" stroke-linecap="round" stroke-linejoin="round"/>
<path d="M23.8437 21.1093H39.5936V24.3906H23.8437V21.1093Z" stroke="#B88E5F" stroke-width="1.4" stroke-miterlimit="10" stroke-linecap="round" stroke-linejoin="round"/>
<path d="M23.8437 34.2343H39.5936V37.5155H23.8437V34.2343Z" stroke="#B88E5F" stroke-width="1.4" stroke-miterlimit="10" stroke-linecap="round" stroke-linejoin="round"/>
<path d="M41.1128 51.6093C40.4088 50.6663 40.0292 49.5205 40.031 48.3436C40.031 45.3232 42.4795 42.8749 45.4997 42.8749C48.5201 42.8749 50.9685 45.3232 50.9685 48.3436C50.9704 49.5224 50.5896 50.6699 49.8835 51.6137M35.042 0.820314H37.1874V4.60774M13.125 17.6654V0.820312H31.5083M37.1874 40.864V51.6795H13.125M37.1874 17.744V14.6309M37.1874 30.8801V27.7446M5.03124 45.4522V17.7734H15.0937V51.6795H5.03124V48.9746M31.4999 40.7968H20.5624V30.953H42.8749V40.7968H35.0307M31.5 51.6795H18.8125V46.867H31.5V51.6795ZM42.8749 14.5469H20.5625V4.70314H42.8749V14.5469ZM42.8749 27.6718H20.5624V17.8281H42.8749V27.6718ZM53.4295 55.1795H2.57031C1.60387 55.1795 0.820312 54.396 0.820312 53.4295C0.820312 52.4631 1.60387 51.6795 2.57031 51.6795H53.4295C54.3961 51.6795 55.1795 52.4631 55.1795 53.4295C55.1795 54.396 54.3961 55.1795 53.4295 55.1795Z" stroke="#00403F" stroke-width="1.4" stroke-miterlimit="10" stroke-linecap="round" stroke-linejoin="round"/>
</g>
<defs>
<clipPath id="clip0_2517_1627">
<rect width="56" height="56" fill="white"/>
</clipPath>
</defs>
</svg>
