<svg width="56" height="56" viewBox="0 0 56 56" fill="none" xmlns="http://www.w3.org/2000/svg">
<path d="M4.56966 44.3641V38.6919M19.9324 38.6919V49.9422C19.9324 50.9867 19.0859 51.8333 18.0413 51.8333H6.46075C5.41622 51.8333 4.56966 50.9867 4.56966 49.9422V47.6453M21.0156 39.1334L12.2513 35.5503L3.48685 39.1334C2.80523 39.412 2.0267 39.0853 1.74801 38.4037L0.919827 36.378C0.64114 35.6963 0.967843 34.9178 1.64947 34.6391L11.3325 30.6805C11.9213 30.4398 12.5811 30.4398 13.1699 30.6805L22.8529 34.6391C23.5346 34.9178 23.8613 35.6963 23.5826 36.378L22.7543 38.4037C22.4757 39.0853 21.6972 39.412 21.0156 39.1334ZM16.0545 40.679H8.44776V47.6721H16.0545V40.679Z" stroke="#B88E5F" stroke-width="1.4" stroke-miterlimit="10" stroke-linecap="round" stroke-linejoin="round"/>
<path d="M50.1308 36.8453C50.4338 37.1253 50.8056 37.3309 51.2213 37.4348L52.898 37.8548C53.3387 37.9653 53.7423 38.1928 54.0639 38.5144L54.4445 38.895C54.8045 39.2549 55.0465 39.7158 55.1384 40.2165C55.2302 40.7172 55.1675 41.234 54.9586 41.6983L52.2133 47.8036M52.2133 47.8036L47.3822 48.4051L30.2683 31.2913L38.5546 23.005L44.0375 28.4891C44.3514 28.803 44.5767 29.1946 44.6894 29.6233L45.1553 31.3897C45.2833 31.8764 45.5502 32.3008 45.9111 32.6224C46.271 32.9439 46.7227 33.1616 47.2214 33.2338C47.765 33.3125 48.2517 33.563 48.6247 33.9305M52.2133 47.8036L32.9847 28.5753M12.1832 21.8458C10.4967 17.1241 11.5773 11.6357 15.4229 7.89396C20.6084 2.85069 28.981 2.93709 34.0647 8.08427C36.7149 10.7661 37.9858 14.3 37.8775 17.7978L39.353 19.2733C40.1635 20.0838 40.1635 21.3963 39.3541 22.2056L29.4688 32.0909C28.6594 32.9003 27.3469 32.9003 26.5365 32.0898L25.061 30.6144C22.1582 30.704 19.2335 29.8455 16.7901 28.0386M14.012 31.0244C15.7685 30.3244 17.0099 28.6083 17.0099 26.6024C17.0099 23.9741 14.8793 21.8446 12.2511 21.8446C9.62278 21.8446 7.49217 23.9741 7.49217 26.6024C7.49217 28.6083 8.73357 30.3244 10.4901 31.0244M8.0421 23.6704C8.02165 23.6499 8.0012 23.6307 7.98085 23.6102C5.68705 21.3164 5.68705 17.5973 7.98085 15.3034L10.963 12.3213C11.5809 11.7045 12.3009 11.2532 13.0697 10.9675M17.9549 11.3316C18.4264 11.5908 18.8693 11.9211 19.2696 12.3214C20.7899 13.8418 21.3029 15.991 20.8063 17.9335C20.5559 18.9211 20.0429 19.8563 19.2696 20.6284L16.2881 23.61C15.5935 24.3034 14.7721 24.7858 13.8971 25.0603C13.8884 25.0636 13.8796 25.0669 13.8698 25.0691C13.7243 25.1139 13.5778 25.1533 13.4301 25.185C13.0036 25.2823 12.5693 25.3305 12.134 25.3305C11.7622 25.3305 11.3914 25.2955 11.0261 25.2244M18.3729 16.7439C16.7436 15.1147 16.7436 12.4733 18.3729 10.844C20.0021 9.21476 22.6436 9.21476 24.2728 10.844C25.902 12.4733 25.902 15.1147 24.2728 16.7439C22.6436 18.3731 20.0021 18.3731 18.3729 16.7439ZM12.2513 28.4468C11.233 28.4468 10.4075 27.6212 10.4075 26.6018C10.4075 25.5837 11.233 24.7581 12.2513 24.7581C13.2694 24.7581 14.0949 25.5837 14.0949 26.6018C14.0949 27.6212 13.2694 28.4468 12.2513 28.4468Z" stroke="#00403F" stroke-width="1.4" stroke-miterlimit="10" stroke-linecap="round" stroke-linejoin="round"/>
</svg>
