<svg width="72" height="72" viewBox="0 0 72 72" fill="none" xmlns="http://www.w3.org/2000/svg">
<path d="M40.9315 42.348L25.8499 47.4175M40.9315 11.9844L17.2109 19.9578M40.9315 19.5753L17.2109 27.5487M40.9315 27.1662L17.2109 35.1396M40.9315 34.7571L17.2109 42.7305M21.1268 49.0052L17.2109 50.3214M56.9483 42.5899H46.6053C46.4133 42.5899 46.2291 42.5136 46.0934 42.3779C45.9576 42.2421 45.8813 42.058 45.8813 41.866V39.3273C45.8813 39.2322 45.9 39.138 45.9364 39.0502C45.9728 38.9623 46.0261 38.8825 46.0933 38.8153C46.1605 38.748 46.2404 38.6947 46.3282 38.6583C46.416 38.6219 46.5102 38.6032 46.6053 38.6032H56.9483C57.1404 38.6032 57.3246 38.6795 57.4603 38.8153C57.5961 38.9511 57.6724 39.1352 57.6724 39.3273V41.866C57.6724 41.9611 57.6537 42.0552 57.6173 42.143C57.5809 42.2309 57.5276 42.3107 57.4603 42.3779C57.3931 42.4451 57.3133 42.4985 57.2254 42.5348C57.1376 42.5712 57.0434 42.5899 56.9483 42.5899ZM56.9483 50.6097H46.6053C46.5102 50.6097 46.416 50.591 46.3282 50.5546C46.2404 50.5182 46.1605 50.4649 46.0933 50.3976C46.0261 50.3304 45.9728 50.2506 45.9364 50.1627C45.9 50.0749 45.8813 49.9807 45.8813 49.8857V47.347C45.8813 47.155 45.9576 46.9708 46.0934 46.8351C46.2291 46.6993 46.4133 46.623 46.6053 46.623H56.9483C57.0434 46.623 57.1376 46.6417 57.2254 46.6781C57.3133 46.7145 57.3931 46.7678 57.4603 46.835C57.5276 46.9022 57.5809 46.982 57.6173 47.0699C57.6537 47.1577 57.6724 47.2519 57.6724 47.347V49.8857C57.6724 50.0777 57.5961 50.2619 57.4603 50.3977C57.3246 50.5334 57.1404 50.6097 56.9483 50.6097ZM50.0264 58.7115H46.6053C46.5102 58.7115 46.4161 58.6928 46.3282 58.6564C46.2404 58.62 46.1606 58.5667 46.0934 58.4995C46.0261 58.4323 45.9728 58.3525 45.9364 58.2646C45.9001 58.1768 45.8813 58.0827 45.8813 57.9876V55.4489C45.8813 55.3538 45.9 55.2597 45.9364 55.1718C45.9728 55.084 46.0261 55.0041 46.0933 54.9369C46.1605 54.8697 46.2404 54.8163 46.3282 54.7799C46.416 54.7436 46.5102 54.7248 46.6053 54.7248H50.0264C50.2184 54.7248 50.4026 54.8011 50.5384 54.9369C50.6742 55.0727 50.7505 55.2569 50.7505 55.4489V57.9876C50.7505 58.0827 50.7317 58.1768 50.6953 58.2647C50.659 58.3525 50.6056 58.4323 50.5384 58.4995C50.4711 58.5668 50.3913 58.6201 50.3035 58.6565C50.2156 58.6928 50.1215 58.7116 50.0264 58.7115Z" stroke="#B88E5F" stroke-width="1.4" stroke-miterlimit="10" stroke-linecap="round" stroke-linejoin="round"/>
<path d="M40.9317 69.3298H9.52957M40.9317 69.3298V4.01245M40.9317 69.3298H58.6053V62.7682M40.9317 69.3298L40.9316 33.891M40.9317 69.3298H69.3593C70.2351 69.3298 70.9451 68.6199 70.9451 67.7441V62.7685M40.9317 69.3298L40.9317 62.7685H70.9451M9.52957 69.3298V17.0219C9.52957 16.3068 9.75411 15.6098 10.1715 15.0292C10.5889 14.4486 11.1781 14.0137 11.8559 13.7859L40.9317 4.01245M9.52957 69.3298H2.64037C1.76456 69.3298 1.05469 68.6199 1.05469 67.7441V62.7685M9.52957 69.3298L9.52957 62.7685M40.9317 4.01245L40.9316 33.891M40.9317 4.01245L50.8103 13.5611C51.1397 13.8795 51.4016 14.2609 51.5805 14.6827C51.7594 15.1044 51.8515 15.5578 51.8515 16.0159V28.9186M58.6053 62.7682L70.9451 62.7685M58.6053 62.7682L58.6053 60.6074C58.6053 57.3643 61.2344 54.7352 64.4775 54.7352H65.0729C68.316 54.7352 70.9451 57.3643 70.9451 60.6074L70.9451 62.7685M40.9316 33.891H60.432C61.7243 33.891 62.7706 34.9372 62.7706 36.2295V54.9889M40.9316 33.891L51.8515 33.8903M9.52957 62.7685H1.05469M9.52957 62.7685L9.52971 54.7352H8.70045C4.47791 54.7352 1.05469 58.1583 1.05469 62.3809L1.05469 62.7685M17.211 11.9859V4.86324C17.211 3.65246 18.1926 2.6709 19.4048 2.6709H19.627C20.8378 2.6709 21.8193 3.65246 21.8193 4.86324V10.4362M23.461 57.4499V69.3298M29.7107 69.3298H17.2112V60.3699C17.2112 59.6752 17.6738 59.0656 18.3429 58.8788L28.1595 56.1383C28.9388 55.9206 29.7107 56.5066 29.7107 57.3158V69.3298Z" stroke="#00403F" stroke-width="1.4" stroke-miterlimit="10" stroke-linecap="round" stroke-linejoin="round"/>
</svg>
