<svg width="104" height="104" viewBox="0 0 104 104" fill="none" xmlns="http://www.w3.org/2000/svg">
<path d="M98.4275 19.4495C98.4275 15.8034 97.7939 12.2252 96.5442 8.81366C96.1084 7.62462 94.7656 6.97258 93.551 7.36188C91.8253 7.91471 89.6544 6.91712 87.3567 5.86087C85.1681 4.85461 82.687 3.71423 80.0749 3.71423C77.4628 3.71423 74.9816 4.85461 72.7928 5.86068C70.4952 6.91675 68.3251 7.91434 66.5984 7.36169C65.3834 6.97314 64.0407 7.62462 63.6054 8.81385C62.3559 12.2248 61.7222 15.8032 61.7222 19.4495C61.7222 19.9824 61.7404 20.5096 61.7677 21.0333C57.1142 19.1726 52.0289 18.1434 46.7025 18.1434C24.6114 18.1434 6.63896 35.7852 6.63896 57.4698C6.63896 62.4282 7.58281 67.1728 9.2968 71.5457L6.39666 74.3924C5.29486 75.4742 5.29486 77.2343 6.39666 78.3162L27.9501 99.4729C28.4839 99.9971 29.1939 100.286 29.9488 100.286C30.7038 100.286 31.4136 99.9971 31.9476 99.4729L36.1013 95.3956C39.4793 96.307 43.0335 96.7963 46.7023 96.7963C50.371 96.7963 53.9252 96.307 57.3033 95.3956L61.457 99.4727C61.9908 99.9969 62.7008 100.285 63.4557 100.285C64.2107 100.285 64.9205 99.9969 65.4545 99.4727L73.7086 91.3705C73.9768 91.1048 74.127 90.7456 74.1261 90.3715C74.1253 89.9974 73.9735 89.6389 73.704 89.3743C73.4345 89.1098 73.0692 88.9609 72.6881 88.9601C72.307 88.9593 71.9411 89.1067 71.6704 89.3701L63.4557 97.4336L55.939 90.0551L77.4138 68.9756L84.9304 76.3541L76.4258 84.702C76.1575 84.9677 76.0073 85.3269 76.0082 85.701C76.009 86.0751 76.1608 86.4337 76.4303 86.6982C76.6998 86.9627 77.0651 87.1117 77.4462 87.1125C77.8273 87.1133 78.1933 86.9659 78.4639 86.7025L87.0077 78.3159C87.271 78.0588 87.4797 77.753 87.6219 77.4162C87.764 77.0795 87.8367 76.7184 87.8357 76.3539C87.8357 75.6126 87.5417 74.9159 87.0077 74.3919L84.1078 71.5453C85.8218 67.1724 86.7656 62.4278 86.7656 57.4694C86.7656 52.6967 85.8904 48.1222 84.2965 43.8864C93.44 38.1668 98.4275 29.6024 98.4275 19.4495ZM29.949 97.4338L8.4742 76.3542L15.9908 68.976L37.4656 90.0555L29.949 97.4338ZM44.8009 42.3366H47.6454L50.3301 44.9719C50.5899 45.2252 50.7943 45.5278 50.9306 45.8614C51.067 46.195 51.1324 46.5524 51.1229 46.9117C51.1066 47.6437 50.793 48.3206 50.2402 48.8174C49.1876 49.763 47.4678 49.6847 46.4066 48.6426L36.8801 39.2914C35.8238 38.2544 35.8238 36.5674 36.8799 35.5304C37.2623 35.1549 37.7514 34.9015 38.283 34.8034C38.2793 34.87 38.2726 34.9359 38.2726 35.0032V35.9284C38.2726 39.4619 41.2012 42.3366 44.8009 42.3366ZM41.1549 35.9284V35.0032C41.1551 34.7873 41.2426 34.5802 41.3982 34.4276C41.5537 34.2749 41.7646 34.189 41.9846 34.1887H49.3953C50.3628 34.1887 51.2353 34.6929 51.7157 35.476L47.6085 39.5077H44.8009C42.7905 39.5073 41.1549 37.9018 41.1549 35.9284ZM45.5478 51.8008C45.8028 52.0496 46.0044 52.346 46.1406 52.6725C46.2769 52.9991 46.3451 53.3491 46.3412 53.702C46.3395 54.0549 46.2657 54.4039 46.1242 54.7284C45.9827 55.0528 45.7764 55.3462 45.5175 55.591C44.4614 56.5956 42.7561 56.5826 41.7165 55.5618L31.0106 45.0528C30.4989 44.5506 30.2169 43.8827 30.2169 43.1723C30.2169 42.462 30.4988 41.7941 31.0106 41.2918C31.2616 41.0441 31.5602 40.8477 31.889 40.714C32.2179 40.5804 32.5705 40.512 32.9264 40.513C33.65 40.513 34.3304 40.7896 34.8419 41.2918L45.5478 51.8008ZM37.7621 55.6814C38.0171 55.9301 38.2187 56.2266 38.355 56.5532C38.4912 56.8798 38.5594 57.2299 38.5555 57.5828C38.5538 57.9357 38.48 58.2847 38.3385 58.6092C38.197 58.9337 37.9907 59.227 37.7317 59.4718C36.6756 60.4765 34.9705 60.4632 33.9308 59.4426L25.141 50.8145C24.6293 50.3122 24.3476 49.6443 24.3476 48.934C24.3476 48.2237 24.6293 47.5558 25.141 47.0535C25.3924 46.8064 25.6911 46.6105 26.0199 46.477C26.3487 46.3436 26.7011 46.2752 27.0569 46.2758C27.7504 46.2758 28.4441 46.5348 28.9721 47.0529L37.7621 55.6814ZM24.8974 54.5764L29.581 59.174C29.8357 59.4227 30.0371 59.7189 30.1732 60.0453C30.3093 60.3716 30.3774 60.7215 30.3735 61.0741C30.3717 61.427 30.2979 61.776 30.1565 62.1005C30.015 62.4249 29.8087 62.7182 29.5497 62.9631C28.4935 63.9676 26.7885 63.9546 25.7488 62.9338L21.0678 58.339C20.0115 57.3019 20.0115 55.615 21.0676 54.578C21.319 54.3309 21.6177 54.1349 21.9465 54.0015C22.2753 53.868 22.6277 53.7997 22.9835 53.8003C23.3388 53.7998 23.6908 53.8682 24.0192 54.0014C24.3476 54.1345 24.646 54.33 24.8974 54.5764ZM27.6653 66.5324C29.0709 66.5324 30.4774 66.0207 31.5558 64.9948C32.3296 64.2587 32.857 63.3424 33.1011 62.3395C33.9403 62.7999 34.8858 63.0414 35.8473 63.0408C37.2529 63.0408 38.6592 62.5291 39.7376 61.5032C40.5558 60.7249 41.0999 59.7457 41.323 58.6753C42.0494 58.9952 42.8367 59.1605 43.6329 59.1602C45.0384 59.1602 46.445 58.6485 47.5233 57.6226C48.6078 56.5909 49.2116 55.2064 49.2233 53.7241C49.2272 53.2405 49.1663 52.7586 49.0423 52.2906C50.1814 52.1733 51.2855 51.7138 52.1863 50.9043C53.3248 49.8812 53.9704 48.4855 54.0044 46.9743C54.0382 45.4623 53.457 44.0407 52.3679 42.9717L50.2617 40.9042L54.862 36.3886C55.9188 35.3519 57.6374 35.3518 58.6935 36.3886C59.7486 37.4243 59.7497 39.1088 58.6973 40.146L58.6937 40.1496C58.5598 40.2809 58.4537 40.4369 58.3812 40.6085C58.3088 40.7801 58.2715 40.9641 58.2716 41.1498C58.2716 41.3356 58.3089 41.5196 58.3813 41.6912C58.4538 41.8628 58.56 42.0187 58.6939 42.15C58.9641 42.4153 59.3306 42.5643 59.7128 42.5643C60.095 42.5643 60.4616 42.4153 60.7318 42.15C61.7879 41.1132 63.5069 41.1132 64.5629 42.15C65.618 43.1857 65.6192 44.8703 64.5666 45.9075L64.5631 45.911C64.2929 46.1763 64.1409 46.5361 64.1409 46.9113C64.1409 47.2864 64.2927 47.6462 64.5629 47.9115C64.8332 48.1768 65.1997 48.3258 65.5819 48.3258C65.9641 48.3258 66.3306 48.1768 66.6009 47.9115C66.8519 47.6637 67.1505 47.4673 67.4793 47.3336C67.8082 47.1999 68.1608 47.1315 68.5168 47.1325C69.2405 47.1325 69.9209 47.409 70.4324 47.9113C71.4888 48.9483 71.4888 50.6355 70.4324 51.6723C70.1621 51.9376 70.0103 52.2974 70.0103 52.6726C70.0103 53.0477 70.1621 53.4075 70.4324 53.6728C70.7026 53.938 71.0692 54.0871 71.4514 54.0871C71.8335 54.0871 72.2001 53.938 72.4703 53.6728C72.9945 53.1584 73.6859 52.8812 74.432 52.8944C75.1724 52.9064 75.8597 53.2065 76.3672 53.7392C77.3529 54.7734 77.2891 56.4647 76.225 57.5092L65.8849 67.659C65.6166 67.9247 65.4665 68.284 65.4673 68.6581C65.4682 69.0322 65.62 69.3907 65.8895 69.6552C66.159 69.9198 66.5243 70.0687 66.9054 70.0695C67.2865 70.0703 67.6524 69.9229 67.9231 69.6595L70.4454 67.1845L72.8041 69.4997L57.5102 84.5123L49.2393 76.3935C50.4156 75.9891 51.668 75.795 52.9322 75.8412L55.6748 75.9406C58.0907 76.0298 60.4747 75.4517 62.5761 74.2731C62.908 74.0869 63.1509 73.779 63.2516 73.4171C63.3522 73.0551 63.3022 72.6687 63.1126 72.3429C62.923 72.0172 62.6093 71.7787 62.2405 71.6799C61.8718 71.5811 61.4782 71.6302 61.1463 71.8163C59.5164 72.7318 57.658 73.181 55.7814 73.1131L53.0389 73.0137C49.4539 72.8816 45.9421 74.237 43.4054 76.7271L35.6847 84.3057L20.8654 69.7593L24.886 65.8127C25.7331 66.2853 26.6909 66.5333 27.6653 66.5324ZM46.7025 93.967C43.9359 93.9666 41.1781 93.6626 38.4803 93.0605L39.5431 92.0173C39.8064 91.7602 40.0152 91.4545 40.1573 91.1177C40.2994 90.7809 40.3721 90.4198 40.3711 90.0553C40.3711 89.3141 40.0771 88.6173 39.5431 88.0933L37.7229 86.3066L45.4437 78.7278C45.7952 78.3835 46.1724 78.0654 46.5722 77.7762L55.4723 86.5125L53.8618 88.0933C52.7602 89.175 52.7602 90.9352 53.862 92.0171L54.9248 93.0603C52.227 93.6625 49.4691 93.9666 46.7025 93.967ZM83.8837 57.4698C83.8837 61.6243 83.1716 65.6182 81.8629 69.3419L79.4128 66.9368C78.879 66.4127 78.169 66.1241 77.414 66.1241C76.659 66.1241 75.949 66.4127 75.4152 66.9368L74.8422 67.4993L72.4836 65.184L78.2639 59.5101C80.4146 57.3987 80.5086 53.9429 78.4729 51.8068C77.4271 50.7091 76.0092 50.0908 74.4808 50.0657C74.3532 50.0634 74.2258 50.0657 74.0992 50.0719C74.1762 48.5747 73.6336 47.052 72.4713 45.9109C71.4152 44.8742 70.011 44.3033 68.5176 44.3033C68.4211 44.3033 68.325 44.3057 68.2295 44.3104C68.3066 42.8132 67.7642 41.2903 66.6016 40.1494C65.4384 39.0075 63.8873 38.4758 62.3599 38.5516C62.4379 37.0534 61.8953 35.5296 60.732 34.3879C58.8762 32.5663 56.0303 32.2964 53.8795 33.5763C52.8477 32.2153 51.2036 31.3595 49.3957 31.3595H41.985C41.1897 31.3595 40.4537 31.6085 39.8488 32.0281C38.0901 31.6988 36.2012 32.196 34.8421 33.5297C33.6796 34.6708 33.1376 36.1935 33.2148 37.691C33.1188 37.6861 33.0227 37.6837 32.9266 37.6836C31.433 37.6836 30.0288 38.2546 28.9729 39.2912C27.9166 40.3278 27.335 41.7062 27.335 43.1723C27.335 43.267 27.3377 43.3613 27.3425 43.4553C25.8172 43.3794 24.2659 43.9117 23.1034 45.0528C22.0472 46.0895 21.4657 47.4679 21.4657 48.934C21.4657 49.6819 21.6179 50.4065 21.9063 51.075C20.8162 51.2828 19.8144 51.8061 19.03 52.5777C16.8501 54.7177 16.8501 58.1998 19.03 60.3398L22.7082 63.9503L18.8279 67.7592L17.9901 66.9368C17.4563 66.4127 16.7463 66.1241 15.9913 66.1241C15.2364 66.1241 14.5266 66.4127 13.9928 66.9368L11.5427 69.3419C10.2341 65.6182 9.522 61.6243 9.522 57.4698C9.522 37.3452 26.2015 20.9726 46.7032 20.9726C52.1993 20.9726 57.4186 22.1532 62.1174 24.2636C63.6289 33.3507 69.4797 40.8352 78.9752 45.6487C79.3155 45.8211 79.6928 45.9109 80.0757 45.9109C80.4534 45.9109 80.8314 45.8235 81.1755 45.6489C81.3763 45.547 81.572 45.4416 81.7693 45.3375C83.1364 49.1351 83.8837 53.218 83.8837 57.4698ZM80.0749 43.0211C75.3057 40.5655 71.5534 37.3996 68.9194 33.608C66.0561 29.486 64.6042 24.7225 64.6042 19.4495C64.6042 16.2764 65.1309 13.1609 66.1708 10.1813C68.8233 10.8094 71.4604 9.59736 74.0148 8.42303C76.0253 7.499 78.104 6.54347 80.0749 6.54347C82.0456 6.54347 84.1243 7.499 86.1346 8.42303C88.6892 9.59755 91.3265 10.8096 93.9788 10.1813C95.0185 13.1607 95.5452 16.2766 95.5452 19.4495C95.5452 24.7225 94.0933 29.486 91.23 33.608C88.5962 37.3994 84.8439 40.5655 80.0749 43.0211Z" fill="#00403F"/>
<path d="M90.0207 21.3852C90.3854 21.2732 90.6899 21.0234 90.8671 20.691C91.0443 20.3586 91.0797 19.9707 90.9655 19.6126C89.4682 14.9168 85.092 11.7619 80.0757 11.7619C73.7845 11.7619 68.666 16.786 68.666 22.9615C68.666 29.137 73.7845 34.1611 80.0757 34.1611C84.7436 34.1611 88.8943 31.4164 90.6498 27.1684C90.7934 26.8207 90.7905 26.4313 90.6417 26.0857C90.4928 25.7402 90.2102 25.4668 89.856 25.3258C89.6806 25.2559 89.493 25.2206 89.3037 25.222C89.1144 25.2233 88.9273 25.2612 88.7529 25.3335C88.5786 25.4059 88.4205 25.5112 88.2877 25.6436C88.1548 25.7759 88.0498 25.9326 87.9787 26.1048C86.6665 29.2799 83.5642 31.3317 80.0755 31.3317C75.3734 31.3317 71.548 27.5767 71.548 22.9613C71.548 18.3459 75.3734 14.5909 80.0755 14.5909C83.825 14.5909 87.0958 16.9486 88.2146 20.4576C88.3289 20.8157 88.5834 21.1145 88.922 21.2884C89.2607 21.4624 89.6559 21.4972 90.0207 21.3852Z" fill="#B88E5F"/>
<path d="M83.8505 19.5219L79.4002 23.8904L76.2978 20.845C76.0271 20.5816 75.6612 20.4342 75.2801 20.435C74.899 20.4358 74.5337 20.5848 74.2642 20.8493C73.9947 21.1138 73.8429 21.4724 73.842 21.8465C73.8412 22.2206 73.9913 22.5798 74.2596 22.8455L78.3811 26.8911C78.6626 27.1672 79.0315 27.3055 79.4002 27.3055C79.769 27.3055 80.1379 27.1674 80.4194 26.8911L85.8888 21.5223C86.159 21.257 86.3108 20.8973 86.3108 20.5221C86.3108 20.147 86.159 19.7872 85.8888 19.5219C85.6185 19.2566 85.2519 19.1076 84.8696 19.1076C84.4874 19.1076 84.1208 19.2566 83.8505 19.5219Z" fill="#B88E5F"/>
</svg>
