<svg width="72" height="72" viewBox="0 0 72 72" fill="none" xmlns="http://www.w3.org/2000/svg">
<path d="M34.2423 15.4587V29.3623C34.2652 29.3584 34.2886 29.3553 34.3126 29.3553M34.3126 29.3553H37.6876M34.3126 29.3553C34.2007 29.3553 34.0934 29.3996 34.0143 29.4787C33.9352 29.5578 33.8907 29.6651 33.8907 29.777V44.1998H38.1095V29.777C38.1095 29.6651 38.065 29.5578 37.9859 29.4787C37.9068 29.3996 37.7995 29.3553 37.6876 29.3553M37.6876 29.3553C37.7116 29.3553 37.735 29.3585 37.7579 29.3623V24.539M37.7579 19.6171V15.4587M36.7032 55.15H43.5272C45.4688 55.15 47.0428 56.724 47.0428 58.6656V62.139H24.9574V58.6656C24.9574 56.724 26.5314 55.15 28.473 55.15H31.7813M62.2542 12.936C62.2542 14.6344 60.8774 16.0112 59.179 16.0112C57.9196 16.0112 56.8369 15.2541 56.3615 14.1702C56.0296 13.4136 55.2692 12.936 54.4432 12.936H39.0753M59.214 14.4843V39.9138M9.74597 12.936C9.74597 14.6344 11.1228 16.0112 12.8212 16.0112C14.0806 16.0112 15.1633 15.2541 15.6387 14.1702C15.9706 13.4136 16.731 12.936 17.557 12.936H32.9249M12.856 14.4843V39.9138M39.5157 49.6985V44.9029C39.5157 44.7164 39.4416 44.5376 39.3098 44.4057C39.1779 44.2739 38.9991 44.1998 38.8126 44.1998H33.1876C33.0011 44.1998 32.8223 44.2739 32.6904 44.4057C32.5586 44.5376 32.4845 44.7164 32.4845 44.9029V49.6985H39.5157ZM68.9141 39.9138L59.214 16.0112L49.5139 39.9138H68.9141ZM22.5562 39.9138L12.856 16.0112L3.15601 39.9138H22.5562Z" stroke="#00403F" stroke-width="1.4" stroke-miterlimit="10" stroke-linecap="round" stroke-linejoin="round"/>
<path d="M22.0218 62.139H49.9781M42.5697 55.15V51.1047C42.5697 50.3281 41.9401 49.6985 41.1634 49.6985H30.8365C30.0598 49.6985 29.4302 50.3281 29.4302 51.1047V55.15M13.0781 44.8062H20.0789C20.7217 44.8061 21.3535 44.6397 21.9128 44.323C22.4721 44.0063 22.9399 43.5502 23.2706 42.9991L24.4867 40.9723C24.7663 40.5064 24.4306 39.9138 23.8874 39.9138H1.75467C1.21143 39.9138 0.875901 40.5064 1.15532 40.9723L2.37145 42.9991C2.70214 43.5503 3.16992 44.0064 3.72924 44.323C4.28855 44.6397 4.92033 44.8062 5.56307 44.8062H8.1562M66.437 44.8062H51.9209C51.2782 44.8061 50.6464 44.6397 50.0871 44.323C49.5278 44.0063 49.06 43.5502 48.7293 42.9991L47.5132 40.9723C47.2336 40.5064 47.5693 39.9138 48.1125 39.9138H70.2452C70.7885 39.9138 71.124 40.5064 70.8446 40.9723L69.6284 42.9991C69.2978 43.5503 68.83 44.0064 68.2707 44.323C67.7114 44.6397 67.0797 44.8062 66.437 44.8062ZM39.0751 12.936C39.0751 14.6344 37.6983 16.0112 35.9999 16.0112C34.3016 16.0112 32.9248 14.6344 32.9248 12.936C32.9248 11.2376 34.3016 9.86084 35.9999 9.86084C37.6983 9.86084 39.0751 11.2376 39.0751 12.936Z" stroke="#B88E5F" stroke-width="1.4" stroke-miterlimit="10" stroke-linecap="round" stroke-linejoin="round"/>
</svg>
