<svg width="72" height="72" viewBox="0 0 72 72" fill="none" xmlns="http://www.w3.org/2000/svg">
<g clip-path="url(#clip0_2534_7810)">
<path d="M23.516 57.7465C10.6696 54.9273 1.05469 43.4731 1.05469 29.7716C1.05469 13.9543 13.8685 1.13203 29.675 1.13203C45.4817 1.13203 58.2954 13.9543 58.2954 29.7716C58.2954 36.5102 55.9697 42.7053 52.0777 47.5968M20.8496 10.5258C24.5562 8.81618 28.7389 8.22528 32.7761 8.82138C36.7079 9.40188 40.4342 11.1162 43.4464 13.7068C46.4221 16.266 48.6654 19.6436 49.8504 23.3866C51.1495 27.4899 51.1577 31.974 49.8738 36.0823C48.567 40.2638 45.9409 43.986 42.456 46.638C42.0349 46.9587 41.6019 47.2634 41.1579 47.5515M28.9223 50.9356C25.6682 50.8213 22.4572 49.9459 19.5973 48.3888C16.8203 46.8765 14.3936 44.7397 12.5382 42.1795C10.6536 39.5788 9.37249 36.5554 8.82603 33.3898C8.26296 30.1291 8.47137 26.7402 9.44055 23.5759C10.3691 20.5443 11.9892 17.7378 14.1398 15.4091C14.4026 15.1246 14.673 14.8474 14.9508 14.5776M56.3725 11.0409L60.6417 12.618L68.488 7.1855L64.2188 5.60839M56.3725 11.0409L56.4027 6.48715L64.2488 1.05469L64.2188 5.60839M56.3725 11.0409L29.6025 29.755M64.2188 5.60839L67.5735 3.28569M29.675 43.4865C22.1233 43.4865 15.9796 37.3341 15.9796 29.7716C15.9796 22.2093 22.1233 16.0569 29.675 16.0569C37.2267 16.0569 43.3706 22.2093 43.3706 29.7716C43.3706 37.3341 37.2267 43.4865 29.675 43.4865ZM29.675 36.0239C26.2382 36.0239 23.4421 33.2192 23.4421 29.7716C23.4421 26.3241 26.2382 23.5193 29.675 23.5193C33.112 23.5193 35.9081 26.3241 35.9081 29.7716C35.9081 33.2192 33.112 36.0239 29.675 36.0239Z" stroke="#00403F" stroke-width="1.4" stroke-miterlimit="10" stroke-linecap="round" stroke-linejoin="round"/>
<path d="M54.3705 70.9452L35.3978 70.9348M29.1511 54.7969L29.1094 47.6719L70.9452 47.7301M70.9452 47.7301L70.8749 70.9452H61.1909M70.9452 47.7301L65.3617 47.7284C65.3601 50.8245 67.8586 53.3351 70.9424 53.336L70.9452 47.7301ZM23.68 66.9345H11.9622M23.68 66.9345V62.9676M23.68 66.9345V70.9014M23.68 66.9345H35.3978M11.9622 66.9345V62.9676H23.68M11.9622 66.9345V70.9014H23.68M23.68 62.9676H35.3978M23.68 62.9676V59.0007M23.68 70.9014H35.3978V66.9345M35.3978 59.0007H23.68M35.3978 59.0007V55.0339H23.68V59.0007M35.3978 59.0007V62.9676M35.3978 62.9676V66.9345M44.0797 63.1043C43.3705 61.9763 42.9959 60.6711 42.9966 59.3296C42.9987 55.4279 46.1618 52.2545 50.0478 52.2557C52.4798 52.2562 54.7079 53.4911 56.0082 55.5588C56.7173 56.6868 57.092 57.992 57.0911 59.3336C57.0891 63.2354 53.9261 66.4088 50.0401 66.4076C47.608 66.4067 45.3799 65.172 44.0797 63.1043ZM34.7384 47.7194C34.7367 50.8155 32.2357 53.3246 29.152 53.3237L29.1549 47.7177L34.7384 47.7194ZM65.3496 70.9452C65.3511 67.8491 67.8523 65.3384 70.936 65.3394L70.9331 70.9452H65.3496Z" stroke="#B88E5F" stroke-width="1.4" stroke-miterlimit="10" stroke-linecap="round" stroke-linejoin="round"/>
</g>
<defs>
<clipPath id="clip0_2534_7810">
<rect width="72" height="72" fill="white"/>
</clipPath>
</defs>
</svg>
