<svg width="56" height="56" viewBox="0 0 56 56" fill="none" xmlns="http://www.w3.org/2000/svg">
<g clip-path="url(#clip0_2517_1621)">
<path fill-rule="evenodd" clip-rule="evenodd" d="M7.62036 15.817C7.62036 15.1572 8.15454 14.6035 8.83078 14.6035H27.2745C27.9426 14.6035 28.488 15.149 28.488 15.817V20.9234C28.488 21.3744 28.1224 21.74 27.6713 21.74C27.2203 21.74 26.8547 21.3744 26.8547 20.9234V16.2368H22.0766V20.9234C22.0766 21.3744 21.7109 21.74 21.2599 21.74C20.8089 21.74 20.4432 21.3744 20.4432 20.9234V16.2368H15.6651V20.9234C15.6651 21.3744 15.2995 21.74 14.8485 21.74C14.3974 21.74 14.0318 21.3744 14.0318 20.9234V16.2368H9.25369V20.9234C9.25369 21.3744 8.88806 21.74 8.43703 21.74C7.986 21.74 7.62036 21.3744 7.62036 20.9234V15.817ZM38.7163 22.8705C38.7163 21.8813 39.5241 21.0802 40.5066 21.0802H52.2134C52.6644 21.0802 53.03 21.4459 53.03 21.8969C53.03 22.3479 52.6644 22.7136 52.2134 22.7136H40.5066C40.4227 22.7136 40.3497 22.7868 40.3497 22.8705V26.4204C40.3497 26.4576 40.3644 26.4953 40.396 26.5268C40.4278 26.5585 40.4671 26.5741 40.5066 26.5741H52.2134C52.6644 26.5741 53.03 26.9398 53.03 27.3908C53.03 27.8418 52.6644 28.2075 52.2134 28.2075H40.5066C39.5258 28.2075 38.7163 27.4081 38.7163 26.4204V22.8705ZM14.0318 27.2433V31.9297C14.0318 32.3808 14.3974 32.7464 14.8485 32.7464C15.2995 32.7464 15.6651 32.3808 15.6651 31.9297V27.2433H20.4432V31.9297C20.4432 32.3808 20.8089 32.7464 21.2599 32.7464C21.7109 32.7464 22.0766 32.3808 22.0766 31.9297V27.2433H26.8547V31.9299C26.8547 32.3809 27.2203 32.7465 27.6713 32.7465C28.1224 32.7465 28.488 32.3809 28.488 31.9299V26.8235C28.488 26.1554 27.9426 25.61 27.2745 25.61H21.2732C21.2688 25.6099 21.2644 25.6099 21.2599 25.6099C21.2554 25.6099 21.251 25.6099 21.2466 25.61H14.8618C14.8574 25.6099 14.8529 25.6099 14.8485 25.6099C14.844 25.6099 14.8396 25.6099 14.8351 25.61H8.83078C8.15454 25.61 7.62036 26.1637 7.62036 26.8235V31.9299C7.62036 32.3809 7.986 32.7465 8.43703 32.7465C8.88806 32.7465 9.25369 32.3809 9.25369 31.9299V27.2433H14.0318ZM38.7163 33.9139C38.7163 32.9248 39.5241 32.1238 40.5066 32.1238H52.2134C52.6644 32.1238 53.03 32.4894 53.03 32.9405C53.03 33.3915 52.6644 33.7571 52.2134 33.7571H40.5066C40.4226 33.7571 40.3497 33.8305 40.3497 33.9139V37.4608C40.3497 37.5444 40.4227 37.6177 40.5066 37.6177H52.2134C52.6644 37.6177 53.03 37.9833 53.03 38.4344C53.03 38.8854 52.6644 39.251 52.2134 39.251H40.5066C39.5241 39.251 38.7163 38.45 38.7163 37.4608V33.9139ZM8.83078 36.6194H27.2745C27.9343 36.6194 28.488 37.1536 28.488 37.8298V42.9362C28.488 43.3873 28.1224 43.7529 27.6713 43.7529C27.2203 43.7529 26.8547 43.3873 26.8547 42.9362V38.2528H22.0766V42.9362C22.0766 43.3873 21.7109 43.7529 21.2599 43.7529C20.8089 43.7529 20.4432 43.3873 20.4432 42.9362V38.2528H15.6651V42.9362C15.6651 43.3873 15.2995 43.7529 14.8485 43.7529C14.3974 43.7529 14.0318 43.3873 14.0318 42.9362V38.2528H9.25369V42.9362C9.25369 43.3873 8.88806 43.7529 8.43703 43.7529C7.986 43.7529 7.62036 43.3873 7.62036 42.9362V37.8298C7.62081 37.5093 7.74836 37.2008 7.97504 36.9741C8.20173 36.7474 8.51019 36.6199 8.83078 36.6194ZM38.7163 44.9576C38.7163 43.9685 39.5241 43.1674 40.5066 43.1674H52.2134C52.6644 43.1674 53.03 43.533 53.03 43.984C53.03 44.4351 52.6644 44.8007 52.2134 44.8007H40.5066C40.4227 44.8007 40.3497 44.874 40.3497 44.9576V48.5044C40.3497 48.588 40.4227 48.6613 40.5066 48.6613H52.2134C52.6644 48.6613 53.03 49.0269 53.03 49.4779C53.03 49.929 52.6644 50.2946 52.2134 50.2946H40.5066C39.5241 50.2946 38.7163 49.4935 38.7163 48.5044V44.9576Z" fill="#B88E5F"/>
<path fill-rule="evenodd" clip-rule="evenodd" d="M20.0121 1.76929C20.0121 0.795703 20.8074 0.00390625 21.7806 0.00390625H29.9313C30.9047 0.00390625 31.6997 0.795764 31.6997 1.76929V4.78784H33.8718C34.8622 4.78784 35.6683 5.59359 35.6683 6.58418V10.0566C35.6683 11.0472 34.8622 11.8531 33.8718 11.8531H33.1383V14.6037H41.6009C42.0519 14.6037 42.4176 14.9693 42.4176 15.4203C42.4176 15.8714 42.0519 16.237 41.6009 16.237H33.1383V20.9216C33.1383 20.9222 33.1383 20.9229 33.1383 20.9235C33.1383 20.9242 33.1383 20.9248 33.1383 20.9255V31.9281C33.1383 31.9287 33.1383 31.9294 33.1383 31.93C33.1383 31.9307 33.1383 31.9313 33.1383 31.9319V42.9345C33.1383 42.9351 33.1383 42.9357 33.1383 42.9364C33.1383 42.937 33.1383 42.9377 33.1383 42.9383V54.3601H51.3966V16.5458C51.3966 16.3784 51.2554 16.237 51.0878 16.237H45.3864C44.9353 16.237 44.5697 15.8714 44.5697 15.4203C44.5697 14.9693 44.9353 14.6037 45.3864 14.6037H51.0878C52.1604 14.6037 53.03 15.4792 53.03 16.5458V54.3601H55.1771C55.6282 54.3601 55.9938 54.7257 55.9938 55.1767C55.9938 55.6278 55.6282 55.9934 55.1771 55.9934H52.2845C52.261 55.9954 52.2373 55.9965 52.2133 55.9965C52.1893 55.9965 52.1656 55.9954 52.1421 55.9934H25.9225C25.8991 55.9954 25.8753 55.9965 25.8513 55.9965C25.8273 55.9965 25.8035 55.9954 25.78 55.9934H10.3248C10.3014 55.9954 10.2776 55.9965 10.2536 55.9965C10.2296 55.9965 10.2058 55.9954 10.1823 55.9934H0.822526C0.371493 55.9934 0.00585938 55.6278 0.00585938 55.1767C0.00585938 54.7257 0.371493 54.3601 0.822526 54.3601H2.9698V11.8531H2.2363C1.24921 11.8531 0.436796 11.0506 0.436796 10.0566V6.58418C0.436796 5.59028 1.24927 4.78784 2.2363 4.78784H20.0121V1.76929ZM20.8274 6.42118C20.8279 6.42118 20.8283 6.42118 20.8288 6.42118C20.8292 6.42118 20.8297 6.42118 20.8302 6.42118H30.8817C30.8822 6.42118 30.8826 6.42118 30.8831 6.42118C30.8835 6.42118 30.884 6.42118 30.8844 6.42118H33.8718C33.9604 6.42118 34.0349 6.49589 34.0349 6.58418V10.0566C34.0349 10.1451 33.9603 10.2197 33.8718 10.2197H19.6663C19.2152 10.2197 18.8496 10.5854 18.8496 11.0364C18.8496 11.4874 19.2152 11.8531 19.6663 11.8531H31.505V20.1069H4.60314V11.8531H15.8776C16.3287 11.8531 16.6943 11.4874 16.6943 11.0364C16.6943 10.5854 16.3287 10.2197 15.8776 10.2197H2.2363C2.14452 10.2197 2.07013 10.1418 2.07013 10.0566V6.58418C2.07013 6.4992 2.14446 6.42118 2.2363 6.42118H20.8274ZM4.60314 21.7402V31.1133H31.505V21.7402H4.60314ZM31.505 32.7467H4.60314V42.1197H31.505V32.7467ZM31.505 43.7531H4.60314V54.3601H9.43691V48.8364C9.43691 48.1526 9.99509 47.595 10.6784 47.595H25.4278C25.7566 47.5955 26.0717 47.7264 26.3042 47.9588C26.5366 48.1913 26.6674 48.5064 26.6679 48.8351L26.6679 48.8364V54.3601H31.505V43.7531ZM25.0346 54.3601V49.2284H11.0702V54.3601H25.0346ZM30.0664 4.78784H21.6455V1.76929C21.6455 1.70119 21.706 1.63724 21.7806 1.63724H29.9313C30.0059 1.63724 30.0664 1.70113 30.0664 1.76929V4.78784Z" fill="#00403F"/>
</g>
<defs>
<clipPath id="clip0_2517_1621">
<rect width="56" height="56" fill="white"/>
</clipPath>
</defs>
</svg>
