<svg width="56" height="56" viewBox="0 0 56 56" fill="none" xmlns="http://www.w3.org/2000/svg">
<g clip-path="url(#clip0_2517_1639)">
<path d="M30.6421 47.2499H32.1565V55.1796H23.8441V47.2499H27.0888M12.4139 12.4141H4.10156V9.13281H12.4139V12.4141ZM12.4139 18.539H4.10156V15.2578H12.4139V18.539ZM12.4139 24.664H4.10156V21.3828H12.4139V24.664ZM12.4139 30.789H4.10156V27.5078H12.4139V30.789ZM12.4139 36.914H4.10156V33.6327H12.4139V36.914ZM51.8983 12.4141H43.5859V9.13281H51.8983V12.4141ZM51.8983 18.539H43.5859V15.2578H51.8983V18.539ZM51.8983 24.664H43.5859V21.3828H51.8983V24.664ZM51.8983 30.789H43.5859V27.5078H51.8983V30.789ZM51.8983 36.914H43.5859V33.6327H51.8983V36.914Z" stroke="#B88E5F" stroke-width="1.4" stroke-miterlimit="10" stroke-linecap="round" stroke-linejoin="round"/>
<path d="M35.4376 41.3983H20.5629M35.4376 41.3983V4.10156H20.5629V41.3983M35.4376 41.3983L35.4376 55.1795H20.5629L20.5629 41.3983M0.820312 6.98598V4.10155H15.695V41.3983M15.695 41.3983H0.820312M15.695 41.3983V55.1795H0.820313L0.820312 41.3983M0.820312 41.3983V10.5084M55.1795 38.5532V41.3983M55.1795 41.3983H40.3048M55.1795 41.3983L55.1795 55.1795H40.3048V41.3983M40.3048 41.3983V4.10156H55.1795V34.9746M12.4139 55.1795H4.10155V47.2499H12.4139V55.1795ZM51.8983 55.1795H43.5859V47.2499H51.8983V55.1795ZM32.1565 12.414H23.8441V9.13279H32.1565V12.414ZM32.1565 18.539H23.8441V15.2578H32.1565V18.539ZM32.1565 24.664H23.8441V21.3828H32.1565V24.664ZM32.1565 30.789H23.8441V27.5077H32.1565V30.789ZM32.1565 36.914H23.8441V33.6327H32.1565V36.914ZM33.3049 4.10155H22.6957V0.820312H33.3049V4.10155ZM13.5622 4.10155H2.95312V0.820312H13.5622V4.10155ZM53.0467 4.10155H42.4376V0.820312H53.0467V4.10155Z" stroke="#00403F" stroke-width="1.4" stroke-miterlimit="10" stroke-linecap="round" stroke-linejoin="round"/>
</g>
<defs>
<clipPath id="clip0_2517_1639">
<rect width="56" height="56" fill="white"/>
</clipPath>
</defs>
</svg>
