<svg width="72" height="72" viewBox="0 0 72 72" fill="none" xmlns="http://www.w3.org/2000/svg">
<path d="M21.0938 32.2549H27.3117M6.35449 18.1008L8.28148 20.0278L11.3419 15.9473M15.1631 18.6885H27.3117M6.35449 24.8841L8.28148 26.811L11.3419 22.7305M15.1631 25.4717H26.2969M6.35449 31.6673L8.28148 33.5943L11.3419 29.5136M15.1631 32.2548H17.8594M6.35449 38.4505L8.28148 40.3775L11.3419 36.2968M15.1631 39.0382H25.4532M6.35449 45.2338L8.28148 47.1607L11.3419 43.0802M15.1631 45.8214H17.5232M43.0797 54.5625L41.578 47.0092L40.0443 47.8947C39.9374 47.9564 39.8162 47.9889 39.6927 47.9889C39.5693 47.9889 39.4481 47.9564 39.3412 47.8947L37.8123 47.012L36.3415 54.7031" stroke="#B88E5F" stroke-width="1.4" stroke-miterlimit="10" stroke-linecap="round" stroke-linejoin="round"/>
<path d="M27.3289 9.65576H11.1094M6.1875 9.65576H2.46094C1.68427 9.65576 1.05469 10.2853 1.05469 11.062V52.0455C1.05469 52.8222 1.68427 53.4517 2.46094 53.4517H17.5231M40.0994 41.5913C39.9758 41.5199 39.8355 41.4823 39.6928 41.4823C39.5501 41.4823 39.4099 41.5199 39.2863 41.5913M40.0994 41.5913L43.3793 43.4849V45.5631C43.3793 45.6865 43.3468 45.8078 43.2851 45.9146C43.2234 46.0215 43.1346 46.1103 43.0277 46.172L40.0444 47.8945C39.9375 47.9562 39.8162 47.9887 39.6928 47.9887C39.5694 47.9887 39.4481 47.9562 39.3413 47.8945L36.3579 46.172C36.251 46.1103 36.1622 46.0215 36.1005 45.9146C36.0388 45.8078 36.0063 45.6865 36.0063 45.5631V43.4849L39.2863 41.5913M40.0994 41.5913L47.3669 45.7871M39.2863 41.5913L32.0188 45.7871M32.0188 36.2813C32.0188 35.8531 32.1315 35.4324 32.3456 35.0616C32.5596 34.6907 32.8676 34.3828 33.2384 34.1687L34.4083 33.4932C34.8717 33.6759 35.3593 33.7896 35.8557 33.8306V36.701C35.8557 36.844 35.8916 36.9846 35.9601 37.11C36.0287 37.2354 36.1276 37.3416 36.2479 37.4188L39.2323 39.3333C39.3696 39.4214 39.5294 39.4683 39.6927 39.4683C39.8559 39.4683 40.0157 39.4214 40.1531 39.3333L43.1374 37.4188C43.2577 37.3416 43.3567 37.2355 43.4253 37.11C43.4938 36.9846 43.5298 36.844 43.5298 36.701V33.8306C44.0262 33.7895 44.5138 33.6759 44.9772 33.4932L46.1471 34.1687C46.5179 34.3828 46.8259 34.6907 47.04 35.0616C47.2541 35.4324 47.3668 35.8531 47.3669 36.2813M32.0188 36.2813V45.7871M32.0188 36.2813L20.1028 41.3045C19.3381 41.6269 18.6854 42.1677 18.2265 42.8592C17.7676 43.5506 17.5229 44.3621 17.5229 45.192V57.3747M32.0188 45.7871L39.6924 62.0273L47.3669 45.7871M47.3669 45.7871V36.2813M47.3669 36.2813L54.3928 39.2433L53.6289 40.0071M52.0566 19.5466V12.7847C52.0566 8.12478 48.279 4.34717 43.6191 4.34717H37.6875M32.7656 4.34717H30.1414C28.5881 4.34717 27.3289 5.60632 27.3289 7.15967V19.6872M35.3831 20.0363V21.7416M44.0024 20.0363V21.7416M39.6928 20.889L37.9875 22.9354L39.6928 24.4702M36.7951 27.9415C38.3954 29.5418 40.9901 29.5418 42.5905 27.9415M17.5231 62.2966V65.5429C17.5231 66.7079 18.4676 67.6523 19.6325 67.6523H59.7528C60.9178 67.6523 61.8622 66.7079 61.8622 65.5429V55.6576H60.1117M60.1117 55.6576C59.9252 55.6576 59.7464 55.5835 59.6145 55.4516C59.4827 55.3198 59.4086 55.1409 59.4086 54.9544V54.0955C59.4086 53.7856 59.204 53.517 58.9088 53.4225C58.4989 53.2912 58.1006 53.1261 57.7181 52.9287C57.4473 52.789 57.1184 52.8333 56.9028 53.0488L56.2891 53.6625C56.1572 53.7944 55.9784 53.8685 55.7919 53.8685C55.6054 53.8685 55.4266 53.7944 55.2947 53.6625L53.629 51.9968C53.4972 51.865 53.4231 51.6861 53.4231 51.4996C53.4231 51.3132 53.4972 51.1343 53.629 51.0025L54.2427 50.3888C54.4583 50.1733 54.5026 49.8443 54.3627 49.5734C54.1653 49.191 54.0001 48.7928 53.8689 48.3829C53.7744 48.0877 53.5058 47.8831 53.1959 47.8831H52.337C52.1505 47.8831 51.9716 47.809 51.8398 47.6772C51.7079 47.5453 51.6338 47.3665 51.6338 47.18V44.824C51.6338 44.6375 51.7079 44.4586 51.8398 44.3268C51.9716 44.1949 52.1505 44.1208 52.337 44.1208H53.1959C53.5058 44.1208 53.7744 43.9164 53.8689 43.6211C54.0001 43.2112 54.1653 42.8129 54.3627 42.4305C54.5025 42.1597 54.4582 41.8308 54.2426 41.6152L53.6289 41.0015C53.497 40.8696 53.423 40.6908 53.423 40.5043C53.423 40.3178 53.497 40.139 53.6289 40.0071M60.1117 55.6576L62.4679 55.6573C62.6544 55.6573 62.8332 55.5832 62.9651 55.4514C63.0969 55.3195 63.171 55.1406 63.171 54.9542V54.0952C63.171 53.7853 63.3756 53.5167 63.6708 53.4222C64.0807 53.2909 64.4789 53.1258 64.8615 52.9285C65.1323 52.7887 65.4612 52.833 65.6768 53.0486L66.2905 53.6622C66.4223 53.7941 66.6012 53.8682 66.7877 53.8682C66.9741 53.8682 67.153 53.7941 67.2848 53.6622L68.9506 51.9965C69.0824 51.8647 69.1565 51.6858 69.1565 51.4994C69.1565 51.3129 69.0824 51.134 68.9506 51.0022L68.3369 50.3885C68.1213 50.1729 68.077 49.844 68.2168 49.5732C68.4142 49.1907 68.5793 48.7925 68.7105 48.3826C68.805 48.0873 69.0736 47.8828 69.3835 47.8828H70.2425C70.4289 47.8828 70.6077 47.8087 70.7395 47.6769C70.8713 47.5451 70.9453 47.3663 70.9453 47.1799V44.824C70.9453 44.6375 70.8712 44.4586 70.7394 44.3268C70.6075 44.1949 70.4287 44.1208 70.2422 44.1208H69.3833C69.0732 44.1208 68.8047 43.9162 68.7102 43.6211C68.579 43.2112 68.4139 42.8129 68.2165 42.4305C68.0767 42.1597 68.121 41.8308 68.3366 41.6152L68.9503 41.0015C69.0821 40.8696 69.1562 40.6908 69.1562 40.5043C69.1562 40.3178 69.0821 40.139 68.9503 40.0071L67.2846 38.3414C67.1527 38.2096 66.9739 38.1355 66.7874 38.1355C66.6009 38.1355 66.4221 38.2096 66.2902 38.3414L65.6765 38.9551C65.4609 39.1707 65.132 39.215 64.8612 39.0752C64.4787 38.8778 64.0805 38.7127 63.6706 38.5815C63.3753 38.487 63.1709 38.2184 63.1709 37.9084V37.0495C63.1709 36.863 63.0968 36.6842 62.9649 36.5523C62.8331 36.4205 62.6542 36.3464 62.4677 36.3464H60.112C59.9255 36.3464 59.7467 36.4205 59.6148 36.5523C59.4829 36.6842 59.4089 36.863 59.4089 37.0495V37.9084C59.4089 38.2184 59.2043 38.487 58.9091 38.5815C58.4992 38.7127 58.101 38.8778 57.7185 39.0752C57.4477 39.215 57.1188 39.1707 56.9032 38.9551L56.2895 38.3414C56.1577 38.2096 55.9788 38.1355 55.7923 38.1355C55.6059 38.1355 55.427 38.2096 55.2952 38.3414L53.6289 40.0071M55.1614 67.6523V51.7617M24.2241 51.7617V67.6523M31.166 19.0131H29.6266C27.4629 19.0131 25.7088 20.7671 25.7088 22.9308V23.2809C25.7088 25.4446 27.4628 27.1987 29.6266 27.1987H31.166V19.0131ZM49.7589 19.0131H48.2195V27.1987H49.7589C51.9225 27.1987 53.6767 25.4447 53.6767 23.2809V22.9308C53.6766 20.7671 51.9225 19.0131 49.7589 19.0131ZM43.1034 33.8497H36.282C33.4564 33.8497 31.1659 31.5592 31.1659 28.7337V16.6257C31.1659 15.213 32.3111 14.0677 33.7238 14.0677H45.6612C47.0739 14.0677 48.2192 15.213 48.2192 16.6257V28.7337C48.2195 31.5591 45.929 33.8497 43.1034 33.8497ZM62.0564 42.7737C63.8431 43.1956 64.9495 44.986 64.5276 46.7727C64.1057 48.5594 62.3153 49.6658 60.5286 49.2439C58.7419 48.822 57.6355 47.0316 58.0574 45.2449C58.4793 43.4582 60.2697 42.3518 62.0564 42.7737Z" stroke="#00403F" stroke-width="1.4" stroke-miterlimit="10" stroke-linecap="round" stroke-linejoin="round"/>
</svg>
