<svg width="72" height="72" viewBox="0 0 72 72" fill="none" xmlns="http://www.w3.org/2000/svg">
<path d="M35.093 38.0177L31.6378 43.8831M45.1772 20.9008L37.9152 33.2264M29.1024 44.1053L20.1347 33.4192M18.1069 33.8228L13.9585 47.3565M11.8899 47.7642L5.37183 39.5519M45.5034 28.5986L45.2795 21.1078C45.2781 21.0605 45.2648 21.0144 45.2408 20.9736C45.2168 20.9328 45.1829 20.8987 45.1423 20.8745C45.1016 20.8503 45.0555 20.8368 45.0082 20.8351C44.9609 20.8335 44.914 20.8438 44.8717 20.8651L38.1805 24.24M15.4199 49.3838C15.4199 50.564 14.4632 51.5207 13.2831 51.5207C12.1028 51.5207 11.1462 50.564 11.1462 49.3838C11.1462 48.2037 12.1028 47.247 13.2831 47.247C14.4632 47.247 15.4199 48.2037 15.4199 49.3838ZM20.892 31.7874C20.892 32.9675 19.9353 33.9242 18.7552 33.9242C17.5749 33.9242 16.6181 32.9675 16.6181 31.7874C16.6181 30.6072 17.5749 29.6505 18.7552 29.6505C19.9353 29.6505 20.892 30.6072 20.892 31.7874ZM32.6557 45.7031C32.6557 46.8833 31.6989 47.84 30.5189 47.84C29.3386 47.84 28.3818 46.8833 28.3818 45.7031C28.3818 44.5228 29.3386 43.5663 30.5189 43.5663C31.6989 43.5663 32.6557 44.5228 32.6557 45.7031Z" stroke="#B88E5F" stroke-width="1.4" stroke-miterlimit="10" stroke-linecap="round" stroke-linejoin="round"/>
<path d="M52.3503 7.34208C55.392 8.88896 58.0175 11.3357 59.7837 14.5519C64.4665 23.0778 61.3517 33.7851 52.827 38.4679C44.3009 43.1507 33.5938 40.0358 28.911 31.5097C24.2282 22.985 27.343 12.278 35.8691 7.59521C39.6208 5.53365 43.7975 4.98367 47.6955 5.74163M55.212 53.1898L61.8468 65.2708C62.5204 66.4957 64.0587 66.943 65.2835 66.2708L69.5768 63.9124C70.8016 63.2404 71.2488 61.7005 70.5768 60.4757L60.4095 41.9653C60.3375 41.8347 60.2167 41.7381 60.0736 41.6964C59.9305 41.6548 59.7767 41.6716 59.6459 41.7431L51.9017 45.997C51.7712 46.069 51.6746 46.1897 51.6329 46.3328C51.5913 46.4759 51.608 46.6297 51.6795 46.7604L52.8425 48.8768M58.0428 42.6234L54.9914 37.0658M53.5034 45.1165L50.4489 39.5548M65.8081 51.7945L57.0796 56.5898M68.7662 57.1797L60.0363 61.975M52.181 60.2488H5.93378C5.78459 60.2488 5.64152 60.1896 5.53603 60.0841C5.43054 59.9786 5.37128 59.8355 5.37128 59.6863V13.4393M52.181 60.2488C52.181 60.2961 52.1689 60.3427 52.1461 60.3841C52.1234 60.4256 52.0905 60.4607 52.0506 60.4861L45.7283 64.5098M52.181 60.2488C52.181 60.2015 52.1689 60.155 52.1461 60.1135C52.1234 60.0721 52.0905 60.037 52.0506 60.0116L45.7283 55.9878M5.37128 13.4393C5.4186 13.4393 5.46523 13.451 5.50671 13.4738C5.54819 13.4966 5.58325 13.5294 5.60865 13.5694L9.6322 19.8917M5.37128 13.4393C5.32395 13.4393 5.27747 13.451 5.23599 13.4738C5.19451 13.4966 5.15944 13.5294 5.13404 13.5694L1.11035 19.8917M56.402 23.0313C56.402 29.6887 51.0049 35.0858 44.3475 35.0858C37.6902 35.0858 32.2933 29.6887 32.2933 23.0313C32.2933 16.3738 37.6902 10.9769 44.3475 10.9769C51.0049 10.9769 56.402 16.3738 56.402 23.0313Z" stroke="#00403F" stroke-width="1.4" stroke-miterlimit="10" stroke-linecap="round" stroke-linejoin="round"/>
</svg>
